<svg id="icon" xmlns="http://www.w3.org/2000/svg" width="42" height="42" viewBox="0 0 42 42">
  <rect id="Rectangle_343" data-name="Rectangle 343" width="42" height="42" fill="none"/>
  <path id="bags-shopping" d="M23.333,11.667H22.167V9.333A4.671,4.671,0,0,0,17.5,4.667H16.3a5.25,5.25,0,0,0-10.435,0h-1.2A4.671,4.671,0,0,0,0,9.333v7a5.84,5.84,0,0,0,5.833,5.833H7A5.84,5.84,0,0,0,12.833,28h9.333A5.84,5.84,0,0,0,28,22.167V16.333A4.671,4.671,0,0,0,23.333,11.667ZM11.083,2.333a2.923,2.923,0,0,1,2.858,2.333H8.225A2.921,2.921,0,0,1,11.083,2.333Zm-5.25,17.5a3.5,3.5,0,0,1-3.5-3.5v-7A2.336,2.336,0,0,1,4.667,7H5.833V9.333a1.167,1.167,0,0,0,2.333,0V7H14V9.333a1.167,1.167,0,1,0,2.333,0V7H17.5a2.336,2.336,0,0,1,2.333,2.333v2.333H11.667A4.671,4.671,0,0,0,7,16.333v3.5Zm19.833,2.333a3.5,3.5,0,0,1-3.5,3.5H12.833a3.5,3.5,0,0,1-3.5-3.5V16.333A2.336,2.336,0,0,1,11.667,14H23.333a2.336,2.336,0,0,1,2.333,2.333Zm-3.5-4.667v1.167a4.667,4.667,0,0,1-9.333,0V17.5a1.167,1.167,0,1,1,2.333,0v1.167a2.333,2.333,0,0,0,4.667,0V17.5a1.167,1.167,0,1,1,2.333,0Z" transform="translate(6.811 7)" fill="#3c9645"/>
</svg>
