<svg id="icon" xmlns="http://www.w3.org/2000/svg" width="42" height="42" viewBox="0 0 42 42">
  <rect id="Rectangle_343" data-name="Rectangle 343" width="42" height="42" fill="none"/>
  <g id="shopping-cart-add" transform="translate(8.678 9)">
    <circle id="Ellipse_1414" data-name="Ellipse 1414" cx="2" cy="2" r="2" transform="translate(5.322 20)" fill="#fff"/>
    <circle id="Ellipse_1415" data-name="Ellipse 1415" cx="2" cy="2" r="2" transform="translate(15.322 20)" fill="#fff"/>
    <path id="Path_81467" data-name="Path 81467" d="M23,3H21V1a1,1,0,1,0-2,0V3H17a1,1,0,0,0,0,2h2V7a1,1,0,0,0,2,0V5h2a1,1,0,0,0,0-2Z" fill="#fff"/>
    <path id="Path_81468" data-name="Path 81468" d="M21.771,9.726a.994.994,0,0,0-1.162.806A3,3,0,0,1,17.657,13H5.418l-.94-8H13a1,1,0,0,0,0-2H4.242L4.2,2.648A3,3,0,0,0,1.222,0H1A1,1,0,0,0,1,2h.222a1,1,0,0,1,.993.883l1.376,11.7A5,5,0,0,0,8.557,19H19a1,1,0,0,0,0-2H8.557a3,3,0,0,1-2.829-2H17.657a5,5,0,0,0,4.921-4.112,1,1,0,0,0-.807-1.162Z" fill="#fff"/>
  </g>
</svg>
