<svg xmlns="http://www.w3.org/2000/svg" xmlns:xlink="http://www.w3.org/1999/xlink" width="42" height="42" viewBox="0 0 42 42">
  <defs>
    <clipPath id="clip-path">
      <rect id="Rectangle_5208" data-name="Rectangle 5208" width="42" height="42" fill="none"/>
    </clipPath>
    <clipPath id="clip-path-2">
      <rect id="Rectangle_7537" data-name="Rectangle 7537" width="42" height="41" fill="#3a9545"/>
    </clipPath>
  </defs>
  <g id="Group_1681" data-name="Group 1681" clip-path="url(#clip-path)">
    <g id="Group_68183" data-name="Group 68183" transform="translate(0 1)" clip-path="url(#clip-path-2)">
      <g id="Group_72101" data-name="Group 72101" transform="translate(4.999 11.432)">
        <path id="Path_72710" data-name="Path 72710" d="M17.828,8.079c-.094-.1-.159-.182-.232-.254q-1.777-1.736-3.557-3.47c-.167-.163-.336-.336-.61-.23s-.317.345-.323.593a5.135,5.135,0,0,1-.015.685.35.35,0,0,1-.242.232c-1.594.013-3.188.021-4.781,0a1.015,1.015,0,0,1-.956-1.076,1.033,1.033,0,0,1,1-1.043c.527-.023,1.055,0,1.581-.02.473-.022.721-.248.743-.619a.6.6,0,0,0-.478-.668,2.519,2.519,0,0,0-.591-.058q-4.114-.006-8.227,0a1.034,1.034,0,0,1-1-.576A.937.937,0,0,1,.243.45,2.611,2.611,0,0,1,1,.022.6.6,0,0,1,1.247.013C7.259.012,13.272.023,19.284,0a1.143,1.143,0,0,1,1.149,1.563c-.138,0-.287,0-.437,0-.738.009-1.477-.008-2.213.037a1.2,1.2,0,0,0-1.138,1.183,1.225,1.225,0,0,0,1.082,1.272,3.244,3.244,0,0,0,.49.033c.621,0,1.243.021,1.863-.006.352-.016.47.109.419.43a.213.213,0,0,0,0,.034q0,5.15,0,10.3c0,.93-.369,1.291-1.314,1.292-1.91,0-3.821,0-5.731-.005a.473.473,0,0,0-.535.351,2.718,2.718,0,0,1-2.634,1.652C8.293,18.12,6.3,18.118,4.309,18.1c-.187,0-.531.148-.527-.195,0-.3.329-.177.512-.178,1.383-.011,2.766-.006,4.149-.006h.465c-.123-.133-.188-.189-.237-.257a10.836,10.836,0,0,1-.722-1.039c-.11-.2-.2-.292-.437-.289-.855.013-1.711.007-2.567,0A1.076,1.076,0,1,1,4.94,14c.609,0,1.219,0,1.828,0a2.732,2.732,0,0,0,.42-.026.639.639,0,0,0,.563-.608.62.62,0,0,0-.485-.667,2.34,2.34,0,0,0-.557-.051q-2.8-.006-5.59,0a1.023,1.023,0,0,1-.991-.589,1.03,1.03,0,0,1,.113-1.135A1.113,1.113,0,0,1,1.2,10.5q3.3,0,6.61,0c1.629,0,3.258.008,4.887-.007.321,0,.448.083.414.4a1.881,1.881,0,0,0,.016.649.688.688,0,0,0,.3.446.717.717,0,0,0,.525-.127,3.033,3.033,0,0,0,.482-.449l3.132-3.059c.082-.08.159-.165.267-.276m-7.39,5.675a1.751,1.751,0,1,0,1.8,1.734,1.777,1.777,0,0,0-1.8-1.734" transform="translate(0 -0.001)" fill="#3a9545"/>
        <path id="Path_72711" data-name="Path 72711" d="M129.675,31.473c-.305-.5-.588-.974-.891-1.438a.408.408,0,0,0-.286-.135c-.327-.017-.656,0-.984-.011a.631.631,0,1,1,0-1.26c.316-.009.635.019.948-.014a.507.507,0,0,0,.357-.227,2.725,2.725,0,0,1,5.072.01.389.389,0,0,0,.257.216,11.171,11.171,0,0,0,1.3-.01.774.774,0,0,0,.8-.8c.021-1.178.028-2.357-.01-3.534a1.112,1.112,0,0,0-.377-.689c-.6-.542-1.255-1.03-1.87-1.56a1.926,1.926,0,0,1-.46-.59c-.569-1.154-1.135-2.31-1.662-3.482a1.16,1.16,0,0,0-1.2-.74q-3.533.018-7.066-.005a.848.848,0,0,1-.606-.234.792.792,0,0,1-.08-.659c.059-.157.32-.252.506-.349a.664.664,0,0,1,.278-.01c2.4,0,4.8.006,7.206,0a2.128,2.128,0,0,1,2.087,1.294c.546,1.139,1.08,2.284,1.634,3.419a1.633,1.633,0,0,0,.4.506c.537.46,1.087.906,1.641,1.347a2.23,2.23,0,0,1,.908,1.911c-.03,1.121-.005,2.242-.008,3.364a2.07,2.07,0,0,1-2.157,2.1c-.387,0-.773.006-1.16,0a.334.334,0,0,0-.368.235,2.736,2.736,0,0,1-2.945,1.747c-.151-.012-.3-.013-.456-.013h-7.066a1.081,1.081,0,0,1-.314-.008,1,1,0,0,1-.25-.173,1.253,1.253,0,0,1,.264-.2.784.784,0,0,1,.278-.009h6.288Zm1.667-3.963a1.752,1.752,0,1,0,1.8,1.757,1.781,1.781,0,0,0-1.8-1.757" transform="translate(-105.57 -13.757)" fill="#3a9545"/>
        <path id="Path_72712" data-name="Path 72712" d="M27.763,27.707a1.069,1.069,0,1,1,1.123-1.07,1.073,1.073,0,0,1-1.123,1.07" transform="translate(-22.93 -22.06)" fill="#3a9545"/>
        <path id="Path_72713" data-name="Path 72713" d="M68.947,106.744a.851.851,0,1,1,.007,1.7.851.851,0,1,1-.007-1.7" transform="translate(-58.504 -92.091)" fill="#3a9545"/>
        <path id="Path_72714" data-name="Path 72714" d="M177.953,106.746a.851.851,0,1,1,.01,1.7.851.851,0,1,1-.01-1.7" transform="translate(-152.177 -92.092)" fill="#3a9545"/>
      </g>
    </g>
  </g>
</svg>
