<svg width="32" height="32" viewBox="0 0 32 32" fill="none" xmlns="http://www.w3.org/2000/svg">
<mask id="mask0_332_590" style="mask-type:alpha" maskUnits="userSpaceOnUse" x="0" y="0" width="32" height="32">
<rect width="32" height="32" fill="white"/>
</mask>
<g mask="url(#mask0_332_590)">
<g clip-path="url(#clip0_332_590)">
<path d="M24.1991 15.3959V29.8299C24.1991 30.6111 23.5647 31.2455 22.7835 31.2455H8.59863C7.81738 31.2455 7.18303 30.6111 7.18303 29.8299V5.5956V2.17013C7.18303 1.38888 7.81738 0.754538 8.59863 0.754538H22.7857C23.567 0.754538 24.2013 1.38888 24.2013 2.17013V5.32166C24.2013 5.47746 24.3282 5.60433 24.484 5.60433H24.6754C24.8312 5.60433 24.9581 5.47746 24.9581 5.32166V2.17236C24.9581 0.972665 23.9854 0 22.7857 0H8.59863C7.39893 0 6.42627 0.972665 6.42627 2.17236V29.8276C6.42627 31.0273 7.39893 32 8.59863 32H22.7857C23.9854 32 24.9581 31.0273 24.9581 29.8276V15.3959C24.9581 15.2401 24.8312 15.1132 24.6754 15.1132H24.484C24.3282 15.1132 24.2013 15.2401 24.2013 15.3959H24.1991Z" fill="#3C9645"/>
<path d="M24.1991 15.3959V29.8299C24.1991 30.6111 23.5647 31.2455 22.7835 31.2455H8.59863C7.81738 31.2455 7.18303 30.6111 7.18303 29.8299V5.5956V2.17013C7.18303 1.38888 7.81738 0.754538 8.59863 0.754538H22.7857C23.567 0.754538 24.2013 1.38888 24.2013 2.17013V5.32166C24.2013 5.47746 24.3282 5.60433 24.484 5.60433H24.6754C24.8312 5.60433 24.9581 5.47746 24.9581 5.32166V2.17236C24.9581 0.972665 23.9854 0 22.7857 0H8.59863C7.39893 0 6.42627 0.972665 6.42627 2.17236V29.8276C6.42627 31.0273 7.39893 32 8.59863 32H22.7857C23.9854 32 24.9581 31.0273 24.9581 29.8276V15.3959C24.9581 15.2401 24.8312 15.1132 24.6754 15.1132H24.484C24.3282 15.1132 24.2013 15.2401 24.2013 15.3959H24.1991Z" fill="url(#paint0_linear_332_590)" fill-opacity="0.6" style="mix-blend-mode:hard-light"/>
<path d="M29.4471 14C29.3369 14 29.2276 13.9634 29.1404 13.8912L27.0513 12.1878V12.5938C27.0513 13.3691 26.4063 14 25.6138 14H19.8638C19.0712 14 18.4263 13.3691 18.4263 12.5938V7.90625C18.4263 7.13094 19.0712 6.5 19.8638 6.5H25.6138C26.4063 6.5 27.0513 7.13094 27.0513 7.90625V8.31219L29.1404 6.60969C29.2832 6.4925 29.4835 6.47 29.6503 6.545C29.8189 6.62187 29.9263 6.78688 29.9263 6.96875V13.5312C29.9263 13.7131 29.8189 13.8781 29.6503 13.9559C29.5861 13.985 29.5161 14 29.4471 14Z" fill="#3C9645"/>
<path d="M29.4471 14C29.3369 14 29.2276 13.9634 29.1404 13.8912L27.0513 12.1878V12.5938C27.0513 13.3691 26.4063 14 25.6138 14H19.8638C19.0712 14 18.4263 13.3691 18.4263 12.5938V7.90625C18.4263 7.13094 19.0712 6.5 19.8638 6.5H25.6138C26.4063 6.5 27.0513 7.13094 27.0513 7.90625V8.31219L29.1404 6.60969C29.2832 6.4925 29.4835 6.47 29.6503 6.545C29.8189 6.62187 29.9263 6.78688 29.9263 6.96875V13.5312C29.9263 13.7131 29.8189 13.8781 29.6503 13.9559C29.5861 13.985 29.5161 14 29.4471 14Z" fill="url(#paint1_linear_332_590)" fill-opacity="0.6" style="mix-blend-mode:hard-light"/>
<path d="M13.2844 20.5049C10.6991 21.3297 8.63966 23.4574 7.94469 26.2403C7.87287 26.523 8.0165 26.8152 8.28059 26.9283C10.7338 27.9769 13.2056 28.5 15.6751 28.5C18.1446 28.5 20.6164 27.9769 23.0719 26.9283C23.336 26.8152 23.4797 26.523 23.4078 26.2403C22.7129 23.4574 20.6511 21.332 18.0635 20.5049C19.0874 19.7486 19.7616 18.5327 19.7616 17.1519C19.7616 14.8615 17.9268 13 15.6728 13C13.4188 13 11.591 14.8639 11.591 17.1519C11.591 18.5327 12.2628 19.7486 13.2844 20.5049ZM22.7847 26.2096C18.0658 28.0853 13.289 28.0829 8.57016 26.2096C9.58483 23.1205 12.4296 21.0092 15.6705 21.0092C18.9114 21.0092 21.77 23.1205 22.7847 26.2096ZM15.6728 13.7776C17.5052 13.7776 18.9971 15.2927 18.9971 17.1519C18.9971 19.011 17.5052 20.5261 15.6728 20.5261C13.8404 20.5261 12.3555 19.011 12.3555 17.1519C12.3555 15.2927 13.845 13.7776 15.6728 13.7776Z" fill="#3C9645"/>
<path d="M13.2844 20.5049C10.6991 21.3297 8.63966 23.4574 7.94469 26.2403C7.87287 26.523 8.0165 26.8152 8.28059 26.9283C10.7338 27.9769 13.2056 28.5 15.6751 28.5C18.1446 28.5 20.6164 27.9769 23.0719 26.9283C23.336 26.8152 23.4797 26.523 23.4078 26.2403C22.7129 23.4574 20.6511 21.332 18.0635 20.5049C19.0874 19.7486 19.7616 18.5327 19.7616 17.1519C19.7616 14.8615 17.9268 13 15.6728 13C13.4188 13 11.591 14.8639 11.591 17.1519C11.591 18.5327 12.2628 19.7486 13.2844 20.5049ZM22.7847 26.2096C18.0658 28.0853 13.289 28.0829 8.57016 26.2096C9.58483 23.1205 12.4296 21.0092 15.6705 21.0092C18.9114 21.0092 21.77 23.1205 22.7847 26.2096ZM15.6728 13.7776C17.5052 13.7776 18.9971 15.2927 18.9971 17.1519C18.9971 19.011 17.5052 20.5261 15.6728 20.5261C13.8404 20.5261 12.3555 19.011 12.3555 17.1519C12.3555 15.2927 13.845 13.7776 15.6728 13.7776Z" fill="url(#paint2_linear_332_590)" fill-opacity="0.6" style="mix-blend-mode:hard-light"/>
<path d="M15.0831 2.28236H18.8894C19.0766 2.28236 19.2263 2.10458 19.2263 1.88236C19.2263 1.66014 19.0766 1.48236 18.8894 1.48236H15.0831C14.896 1.48236 14.7463 1.66014 14.7463 1.88236C14.7463 2.10458 14.896 2.28236 15.0831 2.28236Z" fill="#3C9645"/>
<path d="M15.0831 2.28236H18.8894C19.0766 2.28236 19.2263 2.10458 19.2263 1.88236C19.2263 1.66014 19.0766 1.48236 18.8894 1.48236H15.0831C14.896 1.48236 14.7463 1.66014 14.7463 1.88236C14.7463 2.10458 14.896 2.28236 15.0831 2.28236Z" fill="url(#paint3_linear_332_590)" fill-opacity="0.6" style="mix-blend-mode:hard-light"/>
<path d="M12.5808 2.28236H13.3917C13.6109 2.28236 13.7863 2.10458 13.7863 1.88236C13.7863 1.66014 13.6109 1.48236 13.3917 1.48236H12.5808C12.3616 1.48236 12.1863 1.66014 12.1863 1.88236C12.1863 2.10458 12.366 2.28236 12.5808 2.28236Z" fill="#3C9645"/>
<path d="M12.5808 2.28236H13.3917C13.6109 2.28236 13.7863 2.10458 13.7863 1.88236C13.7863 1.66014 13.6109 1.48236 13.3917 1.48236H12.5808C12.3616 1.48236 12.1863 1.66014 12.1863 1.88236C12.1863 2.10458 12.366 2.28236 12.5808 2.28236Z" fill="url(#paint4_linear_332_590)" fill-opacity="0.6" style="mix-blend-mode:hard-light"/>
</g>
</g>
<defs>
<linearGradient id="paint0_linear_332_590" x1="3.86002" y1="21.4126" x2="29.5579" y2="14.3764" gradientUnits="userSpaceOnUse">
<stop stop-color="#0B0B0B"/>
<stop offset="1" stop-color="white" stop-opacity="0"/>
</linearGradient>
<linearGradient id="paint1_linear_332_590" x1="16.8338" y1="11.5186" x2="28.0706" y2="3.37237" gradientUnits="userSpaceOnUse">
<stop stop-color="#0B0B0B"/>
<stop offset="1" stop-color="white" stop-opacity="0"/>
</linearGradient>
<linearGradient id="paint2_linear_332_590" x1="5.77986" y1="23.3717" x2="24.6637" y2="14.4435" gradientUnits="userSpaceOnUse">
<stop stop-color="#0B0B0B"/>
<stop offset="1" stop-color="white" stop-opacity="0"/>
</linearGradient>
<linearGradient id="paint3_linear_332_590" x1="14.1259" y1="2.01768" x2="14.9596" y2="-0.189698" gradientUnits="userSpaceOnUse">
<stop stop-color="#0B0B0B"/>
<stop offset="1" stop-color="white" stop-opacity="0"/>
</linearGradient>
<linearGradient id="paint4_linear_332_590" x1="11.9647" y1="2.01768" x2="13.2239" y2="0.82702" gradientUnits="userSpaceOnUse">
<stop stop-color="#0B0B0B"/>
<stop offset="1" stop-color="white" stop-opacity="0"/>
</linearGradient>
<clipPath id="clip0_332_590">
<rect width="24.1475" height="32" fill="white" transform="translate(6.42627)"/>
</clipPath>
</defs>
</svg>
