<svg width="32" height="32" viewBox="0 0 32 32" fill="none" xmlns="http://www.w3.org/2000/svg">
<mask id="mask0_332_610" style="mask-type:alpha" maskUnits="userSpaceOnUse" x="0" y="0" width="32" height="32">
<rect width="32" height="32" fill="white"/>
</mask>
<g mask="url(#mask0_332_610)">
<path d="M29.5188 17.6552C31.054 15.7145 31.8656 13.3776 31.8656 10.8969C31.8656 4.88826 26.9824 0 20.9792 0C15.1209 0 10.3282 4.6549 10.0989 10.464C10.0894 10.703 10.2842 10.8975 10.5234 10.8975C10.7625 10.8975 10.9554 10.7032 10.9656 10.4642C11.1932 5.13382 15.5986 0.867413 20.9785 0.867413C26.5035 0.867413 30.9988 5.36692 30.9988 10.8975C30.9988 15.3683 28.0717 19.2626 23.8282 20.5145C23.5987 20.5822 23.4571 20.8164 23.5149 21.0485C23.5727 21.2807 23.8081 21.4229 24.0378 21.3556C26.1863 20.7257 28.1196 19.4235 29.5188 17.6552Z" fill="#3C9645"/>
<path d="M29.5188 17.6552C31.054 15.7145 31.8656 13.3776 31.8656 10.8969C31.8656 4.88826 26.9824 0 20.9792 0C15.1209 0 10.3282 4.6549 10.0989 10.464C10.0894 10.703 10.2842 10.8975 10.5234 10.8975C10.7625 10.8975 10.9554 10.7032 10.9656 10.4642C11.1932 5.13382 15.5986 0.867413 20.9785 0.867413C26.5035 0.867413 30.9988 5.36692 30.9988 10.8975C30.9988 15.3683 28.0717 19.2626 23.8282 20.5145C23.5987 20.5822 23.4571 20.8164 23.5149 21.0485C23.5727 21.2807 23.8081 21.4229 24.0378 21.3556C26.1863 20.7257 28.1196 19.4235 29.5188 17.6552Z" fill="url(#paint0_linear_332_610)" fill-opacity="0.6" style="mix-blend-mode:hard-light"/>
<path d="M27.8981 10.6667C27.8981 14.6459 24.6723 17.8718 20.693 17.8718C19.18 17.8718 17.7788 17.4066 16.6206 16.6115C16.6185 16.61 16.4946 16.5245 16.4899 15.9349C16.4878 15.6796 16.5074 15.4076 16.5296 15.0979L16.5311 15.078L16.5313 15.0751C16.5524 14.7814 16.5776 14.4302 16.5638 14.1107C16.5411 13.5843 16.5132 13.1786 16.4221 12.836C16.3185 12.4463 16.1454 12.1839 15.9953 11.9565L15.9892 11.9473C15.7968 11.6556 15.5227 11.4511 15.2017 11.3514C14.9056 11.2595 14.6265 11.2739 14.4191 11.307C14.1 11.358 13.7745 11.4874 13.5456 11.5842C13.5075 11.2841 13.4879 10.9779 13.4879 10.6667C13.4879 6.68738 16.7137 3.46153 20.693 3.46153C24.6723 3.46153 27.8981 6.68738 27.8981 10.6667Z" stroke="#3C9645" stroke-width="2"/>
<path fill-rule="evenodd" clip-rule="evenodd" d="M23.8229 8.707H22.6489V8.70638H22.647C22.5795 8.25128 22.4227 7.86563 22.1731 7.54942H23.5515L23.821 6.63116H18.4162L18.1424 7.54942H19.7842C20.742 7.5798 21.3144 7.96545 21.5015 8.70638H18.3989L18.1294 9.62464H21.512C21.4303 9.98301 21.2363 10.267 20.9334 10.4753C20.6286 10.6836 20.2333 10.7903 19.7464 10.7934H18.2917L18.2979 11.5194L21.3956 15.1441H22.7226V15.0728L19.843 11.7116C20.6961 11.7116 21.3621 11.5374 21.841 11.1871C22.3199 10.8386 22.5956 10.3178 22.665 9.62526H23.5534L23.8229 8.707Z" fill="#3C9645"/>
<path fill-rule="evenodd" clip-rule="evenodd" d="M23.8229 8.707H22.6489V8.70638H22.647C22.5795 8.25128 22.4227 7.86563 22.1731 7.54942H23.5515L23.821 6.63116H18.4162L18.1424 7.54942H19.7842C20.742 7.5798 21.3144 7.96545 21.5015 8.70638H18.3989L18.1294 9.62464H21.512C21.4303 9.98301 21.2363 10.267 20.9334 10.4753C20.6286 10.6836 20.2333 10.7903 19.7464 10.7934H18.2917L18.2979 11.5194L21.3956 15.1441H22.7226V15.0728L19.843 11.7116C20.6961 11.7116 21.3621 11.5374 21.841 11.1871C22.3199 10.8386 22.5956 10.3178 22.665 9.62526H23.5534L23.8229 8.707Z" fill="url(#paint1_linear_332_610)" fill-opacity="0.6" style="mix-blend-mode:hard-light"/>
<path fill-rule="evenodd" clip-rule="evenodd" d="M14.9149 19.7121H19.753C20.7378 19.7121 21.5513 20.5255 21.5941 21.6387C21.5941 22.3666 21.1659 23.0088 20.5665 23.3085C20.8234 23.6511 20.9947 24.0364 20.9947 24.5074C20.9947 25.278 20.5237 25.9631 19.8387 26.22C20.0956 26.5197 20.224 26.905 20.224 27.3332C20.224 28.1038 19.753 28.7889 19.068 29.0458C19.3249 29.3455 19.4533 29.7308 19.4533 30.159C19.4533 31.1865 18.6398 32 17.6551 32H13.1167C11.497 32 10.3369 31.6936 8.83947 31.2982C8.75356 31.2755 8.66655 31.2526 8.57828 31.2293C8.30632 31.1666 8.02414 31.0936 7.72174 31.0154C7.40526 30.9335 7.06663 30.8459 6.69441 30.7584V30.8012C6.69441 31.2721 6.30908 31.6575 5.83811 31.6575H3.14076C1.94193 31.6575 1 30.7156 1 29.5167V20.3115C1 19.1126 1.94193 18.1707 3.14076 18.1707H5.83811C6.30908 18.1707 6.69441 18.5561 6.69441 19.027V19.1126L8.23576 18.2992C10.6334 17.1432 11.3613 15.3021 11.9179 13.8464C12.3888 12.6047 12.8598 11.4059 14.2727 11.4059C15.4287 11.4059 16.3278 12.3479 16.3278 13.5039V13.5467C16.3111 13.7301 16.3188 13.9769 16.3281 14.2747C16.3664 15.5059 16.4319 17.609 14.9149 19.7121ZM17.2269 22.5379H19.753C20.2668 22.5379 20.695 22.1097 20.695 21.5531C20.695 20.9965 20.2668 20.5684 19.753 20.5684H14.0586C13.7161 20.5684 13.502 20.1402 13.7161 19.8833L14.1871 19.2411C15.5528 17.3632 15.5027 15.5126 15.4698 14.2972C15.4614 13.9884 15.4542 13.7207 15.4715 13.5039C15.4287 12.8616 14.9149 12.305 14.2727 12.305C13.502 12.305 13.2451 12.9045 12.7313 14.1889C12.7244 14.2062 12.7175 14.2235 12.7105 14.241C12.1129 15.7357 11.2873 17.8007 8.62109 19.1126L6.6516 20.0546V29.8164C6.89435 29.8803 7.12566 29.9404 7.34668 29.9978C7.86631 30.1327 8.329 30.2529 8.74954 30.373C8.81351 30.3899 8.87663 30.4065 8.93895 30.4229C10.4616 30.8243 11.5109 31.1009 13.0739 31.1009H17.6123C18.1261 31.1009 18.5542 30.5871 18.5542 30.0305C18.5542 29.4739 18.1261 29.0458 17.6123 29.0458C17.2106 29.019 16.8299 29.0383 16.4963 29.0551C15.7631 29.0923 15.2574 29.1179 15.2574 28.6176C15.2574 28.3607 15.4287 28.1895 15.6856 28.1895H18.3829C18.8967 28.1895 19.3249 27.7613 19.3249 27.2047C19.3249 26.6481 18.8967 26.22 18.3829 26.22H16.4563C16.1994 26.22 16.0281 26.0487 16.0281 25.7918C16.0281 25.5349 16.1994 25.3637 16.4563 25.3637H19.1536C19.6674 25.3637 20.0956 24.9355 20.0956 24.3789C20.0956 23.8223 19.6674 23.3942 19.1536 23.3942H17.2269C16.97 23.3942 16.7988 23.2229 16.7988 22.966C16.7988 22.7091 16.97 22.5379 17.2269 22.5379ZM3.72722 30.3366C4.24679 30.3366 4.66798 29.9154 4.66798 29.3958C4.66798 28.8763 4.24679 28.4551 3.72722 28.4551C3.20765 28.4551 2.78646 28.8763 2.78646 29.3958C2.78646 29.9154 3.20765 30.3366 3.72722 30.3366Z" fill="#3C9645"/>
<path fill-rule="evenodd" clip-rule="evenodd" d="M14.9149 19.7121H19.753C20.7378 19.7121 21.5513 20.5255 21.5941 21.6387C21.5941 22.3666 21.1659 23.0088 20.5665 23.3085C20.8234 23.6511 20.9947 24.0364 20.9947 24.5074C20.9947 25.278 20.5237 25.9631 19.8387 26.22C20.0956 26.5197 20.224 26.905 20.224 27.3332C20.224 28.1038 19.753 28.7889 19.068 29.0458C19.3249 29.3455 19.4533 29.7308 19.4533 30.159C19.4533 31.1865 18.6398 32 17.6551 32H13.1167C11.497 32 10.3369 31.6936 8.83947 31.2982C8.75356 31.2755 8.66655 31.2526 8.57828 31.2293C8.30632 31.1666 8.02414 31.0936 7.72174 31.0154C7.40526 30.9335 7.06663 30.8459 6.69441 30.7584V30.8012C6.69441 31.2721 6.30908 31.6575 5.83811 31.6575H3.14076C1.94193 31.6575 1 30.7156 1 29.5167V20.3115C1 19.1126 1.94193 18.1707 3.14076 18.1707H5.83811C6.30908 18.1707 6.69441 18.5561 6.69441 19.027V19.1126L8.23576 18.2992C10.6334 17.1432 11.3613 15.3021 11.9179 13.8464C12.3888 12.6047 12.8598 11.4059 14.2727 11.4059C15.4287 11.4059 16.3278 12.3479 16.3278 13.5039V13.5467C16.3111 13.7301 16.3188 13.9769 16.3281 14.2747C16.3664 15.5059 16.4319 17.609 14.9149 19.7121ZM17.2269 22.5379H19.753C20.2668 22.5379 20.695 22.1097 20.695 21.5531C20.695 20.9965 20.2668 20.5684 19.753 20.5684H14.0586C13.7161 20.5684 13.502 20.1402 13.7161 19.8833L14.1871 19.2411C15.5528 17.3632 15.5027 15.5126 15.4698 14.2972C15.4614 13.9884 15.4542 13.7207 15.4715 13.5039C15.4287 12.8616 14.9149 12.305 14.2727 12.305C13.502 12.305 13.2451 12.9045 12.7313 14.1889C12.7244 14.2062 12.7175 14.2235 12.7105 14.241C12.1129 15.7357 11.2873 17.8007 8.62109 19.1126L6.6516 20.0546V29.8164C6.89435 29.8803 7.12566 29.9404 7.34668 29.9978C7.86631 30.1327 8.329 30.2529 8.74954 30.373C8.81351 30.3899 8.87663 30.4065 8.93895 30.4229C10.4616 30.8243 11.5109 31.1009 13.0739 31.1009H17.6123C18.1261 31.1009 18.5542 30.5871 18.5542 30.0305C18.5542 29.4739 18.1261 29.0458 17.6123 29.0458C17.2106 29.019 16.8299 29.0383 16.4963 29.0551C15.7631 29.0923 15.2574 29.1179 15.2574 28.6176C15.2574 28.3607 15.4287 28.1895 15.6856 28.1895H18.3829C18.8967 28.1895 19.3249 27.7613 19.3249 27.2047C19.3249 26.6481 18.8967 26.22 18.3829 26.22H16.4563C16.1994 26.22 16.0281 26.0487 16.0281 25.7918C16.0281 25.5349 16.1994 25.3637 16.4563 25.3637H19.1536C19.6674 25.3637 20.0956 24.9355 20.0956 24.3789C20.0956 23.8223 19.6674 23.3942 19.1536 23.3942H17.2269C16.97 23.3942 16.7988 23.2229 16.7988 22.966C16.7988 22.7091 16.97 22.5379 17.2269 22.5379ZM3.72722 30.3366C4.24679 30.3366 4.66798 29.9154 4.66798 29.3958C4.66798 28.8763 4.24679 28.4551 3.72722 28.4551C3.20765 28.4551 2.78646 28.8763 2.78646 29.3958C2.78646 29.9154 3.20765 30.3366 3.72722 30.3366Z" fill="url(#paint2_linear_332_610)" fill-opacity="0.6" style="mix-blend-mode:hard-light"/>
</g>
<defs>
<linearGradient id="paint0_linear_332_610" x1="7.07487" y1="14.3658" x2="33.4653" y2="1.71039" gradientUnits="userSpaceOnUse">
<stop stop-color="#0B0B0B"/>
<stop offset="1" stop-color="white" stop-opacity="0"/>
</linearGradient>
<linearGradient id="paint1_linear_332_610" x1="10.3692" y1="13.7398" x2="29.9934" y2="5.08498" gradientUnits="userSpaceOnUse">
<stop stop-color="#0B0B0B"/>
<stop offset="1" stop-color="white" stop-opacity="0"/>
</linearGradient>
<linearGradient id="paint2_linear_332_610" x1="-1.85183" y1="25.1863" x2="23.2381" y2="13.3238" gradientUnits="userSpaceOnUse">
<stop stop-color="#0B0B0B"/>
<stop offset="1" stop-color="white" stop-opacity="0"/>
</linearGradient>
</defs>
</svg>
