<svg width="32" height="32" viewBox="0 0 32 32" fill="none" xmlns="http://www.w3.org/2000/svg">
<mask id="mask0_332_580" style="mask-type:alpha" maskUnits="userSpaceOnUse" x="0" y="0" width="32" height="32">
<rect width="32" height="32" fill="white"/>
</mask>
<g mask="url(#mask0_332_580)">
<path d="M17.3779 9.84988C17.6563 9.84988 17.8781 9.62297 17.8781 9.34964V4.89388C17.8781 4.61539 17.6512 4.39363 17.3779 4.39363C17.1045 4.39363 16.8776 4.62055 16.8776 4.89388V9.34964C16.8776 9.62812 17.1045 9.84988 17.3779 9.84988Z" fill="#3C9645"/>
<path d="M17.3779 9.84988C17.6563 9.84988 17.8781 9.62297 17.8781 9.34964V4.89388C17.8781 4.61539 17.6512 4.39363 17.3779 4.39363C17.1045 4.39363 16.8776 4.62055 16.8776 4.89388V9.34964C16.8776 9.62812 17.1045 9.84988 17.3779 9.84988Z" fill="url(#paint0_linear_332_580)" fill-opacity="0.6" style="mix-blend-mode:hard-light"/>
<path d="M2.6591 14.2439H5.98545C6.26393 14.2439 6.48569 14.017 6.48569 13.7437C6.48569 13.4704 6.25878 13.2435 5.98545 13.2435H2.6591C2.38062 13.2435 2.15886 13.4704 2.15886 13.7437C2.15886 14.017 2.38577 14.2439 2.6591 14.2439Z" fill="#3C9645"/>
<path d="M2.6591 14.2439H5.98545C6.26393 14.2439 6.48569 14.017 6.48569 13.7437C6.48569 13.4704 6.25878 13.2435 5.98545 13.2435H2.6591C2.38062 13.2435 2.15886 13.4704 2.15886 13.7437C2.15886 14.017 2.38577 14.2439 2.6591 14.2439Z" fill="url(#paint1_linear_332_580)" fill-opacity="0.6" style="mix-blend-mode:hard-light"/>
<path d="M13.581 14.2439H15.2106C15.4891 14.2439 15.7109 14.017 15.7109 13.7437C15.7109 13.4704 15.484 13.2435 15.2106 13.2435H13.581C13.3025 13.2435 13.0807 13.4704 13.0807 13.7437C13.0807 14.017 13.3076 14.2439 13.581 14.2439Z" fill="#3C9645"/>
<path d="M13.581 14.2439H15.2106C15.4891 14.2439 15.7109 14.017 15.7109 13.7437C15.7109 13.4704 15.484 13.2435 15.2106 13.2435H13.581C13.3025 13.2435 13.0807 13.4704 13.0807 13.7437C13.0807 14.017 13.3076 14.2439 13.581 14.2439Z" fill="url(#paint2_linear_332_580)" fill-opacity="0.6" style="mix-blend-mode:hard-light"/>
<path d="M10.1904 14.2439H11.82C12.0985 14.2439 12.3202 14.017 12.3202 13.7437C12.3202 13.4704 12.0933 13.2435 11.82 13.2435H10.1904C9.91187 13.2435 9.69011 13.4704 9.69011 13.7437C9.69011 14.017 9.91702 14.2439 10.1904 14.2439Z" fill="#3C9645"/>
<path d="M10.1904 14.2439H11.82C12.0985 14.2439 12.3202 14.017 12.3202 13.7437C12.3202 13.4704 12.0933 13.2435 11.82 13.2435H10.1904C9.91187 13.2435 9.69011 13.4704 9.69011 13.7437C9.69011 14.017 9.91702 14.2439 10.1904 14.2439Z" fill="url(#paint3_linear_332_580)" fill-opacity="0.6" style="mix-blend-mode:hard-light"/>
<path d="M6.92302 23.5526C6.72705 23.7486 6.72705 24.0683 6.92302 24.2643C7.02101 24.3623 7.14994 24.4139 7.27887 24.4139C7.40779 24.4139 7.53672 24.3623 7.63471 24.2643L9.64083 22.2582C9.8368 22.0622 9.8368 21.7425 9.64083 21.5465C9.44486 21.3505 9.12512 21.3505 8.92915 21.5465L6.92302 23.5526Z" fill="#3C9645"/>
<path d="M6.92302 23.5526C6.72705 23.7486 6.72705 24.0683 6.92302 24.2643C7.02101 24.3623 7.14994 24.4139 7.27887 24.4139C7.40779 24.4139 7.53672 24.3623 7.63471 24.2643L9.64083 22.2582C9.8368 22.0622 9.8368 21.7425 9.64083 21.5465C9.44486 21.3505 9.12512 21.3505 8.92915 21.5465L6.92302 23.5526Z" fill="url(#paint4_linear_332_580)" fill-opacity="0.6" style="mix-blend-mode:hard-light"/>
<path d="M19.2995 20.4428C19.1036 20.2468 18.7838 20.2468 18.5878 20.4428L14.7303 24.3003C14.5343 24.4963 14.5343 24.816 14.7303 25.012C14.8283 25.11 14.9572 25.1615 15.0861 25.1615C15.2151 25.1615 15.344 25.11 15.442 25.012L19.2995 21.1544C19.4955 20.9585 19.4955 20.6387 19.2995 20.4428Z" fill="#3C9645"/>
<path d="M19.2995 20.4428C19.1036 20.2468 18.7838 20.2468 18.5878 20.4428L14.7303 24.3003C14.5343 24.4963 14.5343 24.816 14.7303 25.012C14.8283 25.11 14.9572 25.1615 15.0861 25.1615C15.2151 25.1615 15.344 25.11 15.442 25.012L19.2995 21.1544C19.4955 20.9585 19.4955 20.6387 19.2995 20.4428Z" fill="url(#paint5_linear_332_580)" fill-opacity="0.6" style="mix-blend-mode:hard-light"/>
<path d="M20.2234 21.8249L18.2173 23.831C18.0213 24.027 18.0213 24.3467 18.2173 24.5427C18.3153 24.6407 18.4442 24.6922 18.5731 24.6922C18.7021 24.6922 18.831 24.6407 18.929 24.5427L20.9351 22.5366C21.1311 22.3406 21.1311 22.0208 20.9351 21.8249C20.7391 21.6289 20.4194 21.6289 20.2234 21.8249Z" fill="#3C9645"/>
<path d="M20.2234 21.8249L18.2173 23.831C18.0213 24.027 18.0213 24.3467 18.2173 24.5427C18.3153 24.6407 18.4442 24.6922 18.5731 24.6922C18.7021 24.6922 18.831 24.6407 18.929 24.5427L20.9351 22.5366C21.1311 22.3406 21.1311 22.0208 20.9351 21.8249C20.7391 21.6289 20.4194 21.6289 20.2234 21.8249Z" fill="url(#paint6_linear_332_580)" fill-opacity="0.6" style="mix-blend-mode:hard-light"/>
<path d="M30.489 0H15.6828C14.8525 0 14.177 0.675585 14.177 1.50588V10.9176H1.50588C0.675584 10.9176 0 11.5932 0 12.4235V30.4941C0 31.3244 0.675584 32 1.50588 32H30.4941C31.3244 32 32 31.3244 32 30.4941V1.50588C32 0.675585 31.3244 0 30.4941 0H30.489ZM15.1826 1.50588C15.1826 1.2274 15.4095 1.00564 15.6828 1.00564H30.489C30.7674 1.00564 30.9892 1.23256 30.9892 1.50588V11.9233H17.7921C17.5858 11.3405 17.0288 10.9176 16.3739 10.9176H15.1826V1.50588ZM19.7157 30.9944H17.1114V29.7721H19.7157V30.9944ZM20.216 28.7665H11.4179C11.2786 28.7665 11.1652 28.653 11.1652 28.5138V27.7299H25.6567V28.5138C25.6567 28.653 25.5433 28.7665 25.404 28.7665H20.2108H20.216ZM8.93731 28.3591C6.2917 28.3591 4.13602 26.2085 4.13602 23.5578C4.13602 20.907 6.2917 18.7565 8.93731 18.7565C9.39629 18.7565 9.83465 18.8235 10.2524 18.9421C10.1905 19.0865 10.1595 19.2464 10.1595 19.4166V19.7002C9.77276 19.5765 9.36019 19.5094 8.93731 19.5094C6.70427 19.5094 4.88896 21.3247 4.88896 23.5578C4.88896 25.7908 6.70427 27.6061 8.93731 27.6061C9.36535 27.6061 9.77276 27.5391 10.1595 27.4153V28.1992C9.7676 28.3023 9.36019 28.3591 8.93731 28.3591ZM10.1595 22.8925C10.0873 22.9183 10.0203 22.9544 9.96358 23.0163L9.17969 23.8002C8.98372 23.9961 8.98372 24.3159 9.17969 24.5118C9.27768 24.6098 9.40661 24.6614 9.53553 24.6614C9.66446 24.6614 9.79339 24.6098 9.89138 24.5118L10.1647 24.2385V26.3478C9.78823 26.5128 9.37566 26.6056 8.94246 26.6056C7.2664 26.6056 5.89976 25.239 5.89976 23.5629C5.89976 21.8869 7.2664 20.5202 8.94246 20.5202C9.37566 20.5202 9.79339 20.6131 10.1647 20.7781V22.8977L10.1595 22.8925ZM25.6567 26.7243H11.1652V19.4166C11.1652 19.2774 11.2786 19.1639 11.4179 19.1639H25.4092C25.5484 19.1639 25.6619 19.2774 25.6619 19.4166V26.7243H25.6567ZM1.50072 11.9181H16.3687C16.6472 11.9181 16.869 12.145 16.869 12.4184V15.3064H0.995326V12.4184C0.995326 12.1399 1.22224 11.9181 1.49557 11.9181H1.50072ZM1.00048 30.489V16.312H16.8741V18.1634H11.4179C11.3251 18.1634 11.2374 18.1737 11.1497 18.1944C10.469 17.9107 9.72119 17.756 8.94246 17.756C5.73989 17.756 3.14069 20.3604 3.14069 23.5578C3.14069 26.7552 5.74504 29.3595 8.94246 29.3595C9.43239 29.3595 9.90685 29.2977 10.3607 29.1842C10.5824 29.5349 10.9744 29.767 11.4179 29.767H16.1057V30.9892H1.50072C1.22224 30.9892 1.00048 30.7623 1.00048 30.489ZM30.489 30.9892H20.7162V29.767H25.404C26.0951 29.767 26.6572 29.2048 26.6572 28.5138V19.4166C26.6572 18.7255 26.0951 18.1634 25.404 18.1634H17.8746V12.9238H30.9892V30.489C30.9892 30.7674 30.7623 30.9892 30.489 30.9892Z" fill="#3C9645"/>
<path d="M30.489 0H15.6828C14.8525 0 14.177 0.675585 14.177 1.50588V10.9176H1.50588C0.675584 10.9176 0 11.5932 0 12.4235V30.4941C0 31.3244 0.675584 32 1.50588 32H30.4941C31.3244 32 32 31.3244 32 30.4941V1.50588C32 0.675585 31.3244 0 30.4941 0H30.489ZM15.1826 1.50588C15.1826 1.2274 15.4095 1.00564 15.6828 1.00564H30.489C30.7674 1.00564 30.9892 1.23256 30.9892 1.50588V11.9233H17.7921C17.5858 11.3405 17.0288 10.9176 16.3739 10.9176H15.1826V1.50588ZM19.7157 30.9944H17.1114V29.7721H19.7157V30.9944ZM20.216 28.7665H11.4179C11.2786 28.7665 11.1652 28.653 11.1652 28.5138V27.7299H25.6567V28.5138C25.6567 28.653 25.5433 28.7665 25.404 28.7665H20.2108H20.216ZM8.93731 28.3591C6.2917 28.3591 4.13602 26.2085 4.13602 23.5578C4.13602 20.907 6.2917 18.7565 8.93731 18.7565C9.39629 18.7565 9.83465 18.8235 10.2524 18.9421C10.1905 19.0865 10.1595 19.2464 10.1595 19.4166V19.7002C9.77276 19.5765 9.36019 19.5094 8.93731 19.5094C6.70427 19.5094 4.88896 21.3247 4.88896 23.5578C4.88896 25.7908 6.70427 27.6061 8.93731 27.6061C9.36535 27.6061 9.77276 27.5391 10.1595 27.4153V28.1992C9.7676 28.3023 9.36019 28.3591 8.93731 28.3591ZM10.1595 22.8925C10.0873 22.9183 10.0203 22.9544 9.96358 23.0163L9.17969 23.8002C8.98372 23.9961 8.98372 24.3159 9.17969 24.5118C9.27768 24.6098 9.40661 24.6614 9.53553 24.6614C9.66446 24.6614 9.79339 24.6098 9.89138 24.5118L10.1647 24.2385V26.3478C9.78823 26.5128 9.37566 26.6056 8.94246 26.6056C7.2664 26.6056 5.89976 25.239 5.89976 23.5629C5.89976 21.8869 7.2664 20.5202 8.94246 20.5202C9.37566 20.5202 9.79339 20.6131 10.1647 20.7781V22.8977L10.1595 22.8925ZM25.6567 26.7243H11.1652V19.4166C11.1652 19.2774 11.2786 19.1639 11.4179 19.1639H25.4092C25.5484 19.1639 25.6619 19.2774 25.6619 19.4166V26.7243H25.6567ZM1.50072 11.9181H16.3687C16.6472 11.9181 16.869 12.145 16.869 12.4184V15.3064H0.995326V12.4184C0.995326 12.1399 1.22224 11.9181 1.49557 11.9181H1.50072ZM1.00048 30.489V16.312H16.8741V18.1634H11.4179C11.3251 18.1634 11.2374 18.1737 11.1497 18.1944C10.469 17.9107 9.72119 17.756 8.94246 17.756C5.73989 17.756 3.14069 20.3604 3.14069 23.5578C3.14069 26.7552 5.74504 29.3595 8.94246 29.3595C9.43239 29.3595 9.90685 29.2977 10.3607 29.1842C10.5824 29.5349 10.9744 29.767 11.4179 29.767H16.1057V30.9892H1.50072C1.22224 30.9892 1.00048 30.7623 1.00048 30.489ZM30.489 30.9892H20.7162V29.767H25.404C26.0951 29.767 26.6572 29.2048 26.6572 28.5138V19.4166C26.6572 18.7255 26.0951 18.1634 25.404 18.1634H17.8746V12.9238H30.9892V30.489C30.9892 30.7674 30.7623 30.9892 30.489 30.9892Z" fill="url(#paint7_linear_332_580)" fill-opacity="0.6" style="mix-blend-mode:hard-light"/>
</g>
<defs>
<linearGradient id="paint0_linear_332_580" x1="16.7391" y1="8.04465" x2="18.2193" y2="7.91632" gradientUnits="userSpaceOnUse">
<stop stop-color="#0B0B0B"/>
<stop offset="1" stop-color="white" stop-opacity="0"/>
</linearGradient>
<linearGradient id="paint1_linear_332_580" x1="1.55969" y1="13.9129" x2="2.80459" y2="11.3674" gradientUnits="userSpaceOnUse">
<stop stop-color="#0B0B0B"/>
<stop offset="1" stop-color="white" stop-opacity="0"/>
</linearGradient>
<linearGradient id="paint2_linear_332_580" x1="12.7165" y1="13.9129" x2="14.2571" y2="11.9981" gradientUnits="userSpaceOnUse">
<stop stop-color="#0B0B0B"/>
<stop offset="1" stop-color="white" stop-opacity="0"/>
</linearGradient>
<linearGradient id="paint3_linear_332_580" x1="9.32589" y1="13.9129" x2="10.8665" y2="11.9981" gradientUnits="userSpaceOnUse">
<stop stop-color="#0B0B0B"/>
<stop offset="1" stop-color="white" stop-opacity="0"/>
</linearGradient>
<linearGradient id="paint4_linear_332_580" x1="6.35898" y1="23.4166" x2="10.0294" y2="21.6827" gradientUnits="userSpaceOnUse">
<stop stop-color="#0B0B0B"/>
<stop offset="1" stop-color="white" stop-opacity="0"/>
</linearGradient>
<linearGradient id="paint5_linear_332_580" x1="13.9099" y1="23.5517" x2="19.8359" y2="20.7513" gradientUnits="userSpaceOnUse">
<stop stop-color="#0B0B0B"/>
<stop offset="1" stop-color="white" stop-opacity="0"/>
</linearGradient>
<linearGradient id="paint6_linear_332_580" x1="17.6532" y1="23.6949" x2="21.3237" y2="21.961" gradientUnits="userSpaceOnUse">
<stop stop-color="#0B0B0B"/>
<stop offset="1" stop-color="white" stop-opacity="0"/>
</linearGradient>
<linearGradient id="paint7_linear_332_580" x1="-4.4313" y1="21.4126" x2="34.5546" y2="2.98012" gradientUnits="userSpaceOnUse">
<stop stop-color="#0B0B0B"/>
<stop offset="1" stop-color="white" stop-opacity="0"/>
</linearGradient>
</defs>
</svg>
