<svg width="32" height="32" viewBox="0 0 32 32" fill="none" xmlns="http://www.w3.org/2000/svg">
<mask id="mask0_332_635" style="mask-type:alpha" maskUnits="userSpaceOnUse" x="0" y="0" width="32" height="32">
<rect width="32" height="32" fill="white"/>
</mask>
<g mask="url(#mask0_332_635)">
<path d="M16.2728 21.2827C16.1411 20.5742 16.0697 19.8345 16.0611 19.0631C16.0432 17.4785 16.0578 15.894 16.0584 14.3095C16.0584 13.7544 16.1061 13.6856 16.6115 13.4693C17.0482 13.2827 17.4849 13.0955 17.9208 12.9082C17.9182 12.9029 17.9235 12.9135 17.9208 12.9082L15.197 12.113C14.9509 12.0429 15.0574 11.6684 15.3036 11.7385L18.5295 12.6476C19.4809 12.24 20.4323 11.8325 21.3836 11.4263L20.9225 11.0472C20.6116 10.7911 20.1981 10.5959 19.8269 10.4431L15.4048 8.73818C14.3284 8.32733 13.0244 8.29756 12.2146 9.15631C11.5047 9.91053 11.3062 11.0584 11.8024 12.0349L14.7419 17.8186H14.7412V17.8193L11.0554 21.4839C10.9899 21.5375 10.9297 21.595 10.8748 21.6565C10.4904 22.0886 10.3766 22.7032 10.5731 23.255L12.681 28.6225H12.6797V28.6232L10.9681 29.0757C10.8345 29.1167 10.728 29.1769 10.6552 29.2609C10.5824 29.3456 10.5434 29.4541 10.5447 29.5917V30.0496C10.5401 30.1984 10.6261 30.2573 10.763 30.2639H15.4299C15.5616 30.2494 15.6608 30.1951 15.7356 30.1177C15.9585 29.8848 15.9572 29.4442 15.944 29.2537C15.9288 29.0294 15.854 28.6827 15.7766 28.467L13.899 23.2153H13.8997V23.2146L16.2715 21.2827H16.2728Z" fill="#3C9645"/>
<path d="M16.2728 21.2827C16.1411 20.5742 16.0697 19.8345 16.0611 19.0631C16.0432 17.4785 16.0578 15.894 16.0584 14.3095C16.0584 13.7544 16.1061 13.6856 16.6115 13.4693C17.0482 13.2827 17.4849 13.0955 17.9208 12.9082C17.9182 12.9029 17.9235 12.9135 17.9208 12.9082L15.197 12.113C14.9509 12.0429 15.0574 11.6684 15.3036 11.7385L18.5295 12.6476C19.4809 12.24 20.4323 11.8325 21.3836 11.4263L20.9225 11.0472C20.6116 10.7911 20.1981 10.5959 19.8269 10.4431L15.4048 8.73818C14.3284 8.32733 13.0244 8.29756 12.2146 9.15631C11.5047 9.91053 11.3062 11.0584 11.8024 12.0349L14.7419 17.8186H14.7412V17.8193L11.0554 21.4839C10.9899 21.5375 10.9297 21.595 10.8748 21.6565C10.4904 22.0886 10.3766 22.7032 10.5731 23.255L12.681 28.6225H12.6797V28.6232L10.9681 29.0757C10.8345 29.1167 10.728 29.1769 10.6552 29.2609C10.5824 29.3456 10.5434 29.4541 10.5447 29.5917V30.0496C10.5401 30.1984 10.6261 30.2573 10.763 30.2639H15.4299C15.5616 30.2494 15.6608 30.1951 15.7356 30.1177C15.9585 29.8848 15.9572 29.4442 15.944 29.2537C15.9288 29.0294 15.854 28.6827 15.7766 28.467L13.899 23.2153H13.8997V23.2146L16.2715 21.2827H16.2728Z" fill="url(#paint0_linear_332_635)" fill-opacity="0.6" style="mix-blend-mode:hard-light"/>
<path d="M16.2758 21.2838C16.8012 24.1102 18.3043 26.4383 20.7826 28.261C21.5799 28.8472 22.4122 29.3864 23.2021 29.9825C23.3205 30.0718 23.2021 29.9825 23.4608 30.1876C23.4608 30.1876 24.1661 30.5402 24.5736 30.1876C25.2041 29.7033 25.1651 29.7232 25.4707 29.4903C26.4929 28.7109 27.5845 28.005 28.5167 27.1297C30.4982 25.268 31.5812 22.9272 31.8499 20.216C31.8571 20.1426 31.8876 20.0711 31.9068 19.9983V13.8581C31.7235 13.7284 31.5554 13.563 31.3543 13.4756C29.1988 12.5415 27.0394 11.6146 24.8753 10.6996C24.8753 10.6996 23.9762 10.3271 23.1915 10.6599C22.5901 10.9146 21.9901 11.1706 21.3893 11.4273C20.4373 11.8329 19.4859 12.2404 18.5352 12.648L17.9265 12.9087C17.4899 13.0959 17.0532 13.2825 16.6172 13.4697C16.1118 13.686 16.0641 13.7548 16.0641 14.3099C16.0641 15.8944 16.0496 17.479 16.0668 19.0635C16.0754 19.8349 16.1468 20.5746 16.2785 21.2832M30.9005 19.7727C30.6782 22.5905 29.4132 24.9365 27.2967 26.8009C26.8978 27.1529 26.4863 27.4903 26.0701 27.8231C25.6699 28.1433 25.2656 28.4595 24.864 28.7784C24.7278 28.8862 24.5921 28.9947 24.4572 29.1039C24.1786 29.3289 23.8756 29.3937 23.5872 29.1535C22.3367 28.1109 21.0076 27.1449 19.8716 25.9891C18.3645 24.4562 17.4892 22.6196 17.1505 20.5733C17.0631 20.0466 17.0109 19.5061 16.9937 18.953C16.9732 18.3046 16.9904 17.655 16.9904 17.0053C16.989 17.0053 16.9877 17.0053 16.9864 17.0053C16.9864 16.2769 16.997 15.5478 16.9824 14.8194C16.9738 14.4019 17.1518 14.1637 17.5382 14.0115C17.8041 13.9063 18.0688 13.8005 18.3341 13.6946C18.827 13.4988 19.3199 13.3023 19.8121 13.1052C20.6232 12.7803 21.4343 12.4555 22.2468 12.1333C22.7039 11.952 23.1618 11.7707 23.6202 11.5921C23.8313 11.51 24.129 11.5041 24.3381 11.5861C26.3837 12.384 28.4181 13.2097 30.4579 14.0228C30.7688 14.1465 30.9838 14.3351 30.9799 14.691C30.962 16.386 31.0315 18.0883 30.8985 19.7747L30.9005 19.7727Z" fill="#3C9645"/>
<path d="M16.2758 21.2838C16.8012 24.1102 18.3043 26.4383 20.7826 28.261C21.5799 28.8472 22.4122 29.3864 23.2021 29.9825C23.3205 30.0718 23.2021 29.9825 23.4608 30.1876C23.4608 30.1876 24.1661 30.5402 24.5736 30.1876C25.2041 29.7033 25.1651 29.7232 25.4707 29.4903C26.4929 28.7109 27.5845 28.005 28.5167 27.1297C30.4982 25.268 31.5812 22.9272 31.8499 20.216C31.8571 20.1426 31.8876 20.0711 31.9068 19.9983V13.8581C31.7235 13.7284 31.5554 13.563 31.3543 13.4756C29.1988 12.5415 27.0394 11.6146 24.8753 10.6996C24.8753 10.6996 23.9762 10.3271 23.1915 10.6599C22.5901 10.9146 21.9901 11.1706 21.3893 11.4273C20.4373 11.8329 19.4859 12.2404 18.5352 12.648L17.9265 12.9087C17.4899 13.0959 17.0532 13.2825 16.6172 13.4697C16.1118 13.686 16.0641 13.7548 16.0641 14.3099C16.0641 15.8944 16.0496 17.479 16.0668 19.0635C16.0754 19.8349 16.1468 20.5746 16.2785 21.2832M30.9005 19.7727C30.6782 22.5905 29.4132 24.9365 27.2967 26.8009C26.8978 27.1529 26.4863 27.4903 26.0701 27.8231C25.6699 28.1433 25.2656 28.4595 24.864 28.7784C24.7278 28.8862 24.5921 28.9947 24.4572 29.1039C24.1786 29.3289 23.8756 29.3937 23.5872 29.1535C22.3367 28.1109 21.0076 27.1449 19.8716 25.9891C18.3645 24.4562 17.4892 22.6196 17.1505 20.5733C17.0631 20.0466 17.0109 19.5061 16.9937 18.953C16.9732 18.3046 16.9904 17.655 16.9904 17.0053C16.989 17.0053 16.9877 17.0053 16.9864 17.0053C16.9864 16.2769 16.997 15.5478 16.9824 14.8194C16.9738 14.4019 17.1518 14.1637 17.5382 14.0115C17.8041 13.9063 18.0688 13.8005 18.3341 13.6946C18.827 13.4988 19.3199 13.3023 19.8121 13.1052C20.6232 12.7803 21.4343 12.4555 22.2468 12.1333C22.7039 11.952 23.1618 11.7707 23.6202 11.5921C23.8313 11.51 24.129 11.5041 24.3381 11.5861C26.3837 12.384 28.4181 13.2097 30.4579 14.0228C30.7688 14.1465 30.9838 14.3351 30.9799 14.691C30.962 16.386 31.0315 18.0883 30.8985 19.7747L30.9005 19.7727Z" fill="url(#paint1_linear_332_635)" fill-opacity="0.6" style="mix-blend-mode:hard-light"/>
<path d="M11.3978 15.0107L12.24 13.9469L11.3746 12.2532C11.1623 11.8364 11.0564 11.3924 11.0472 10.9538L9.82254 13.0087L6.46757 12.1189V10.4834L7.06367 9.50224V8.82675L6.46757 7.79466H6.23998V9.0378C6.23998 9.12116 6.16985 9.19129 6.08649 9.19129H5.17679C5.09343 9.19129 5.02397 9.12249 5.02397 9.03846V7.79532H4.79704L4.2016 8.82609V9.50158L4.78711 10.4649V11.5678L4.63296 11.5876C4.43051 11.6141 4.26379 11.6895 4.2585 11.8959L4.22674 13.1238C4.21748 13.4844 4.45896 13.8337 4.78711 13.9667V15.6306L4.2016 16.5939V17.2694L4.7977 18.3015H5.02463V17.0584C5.02463 16.9737 5.09343 16.9049 5.17746 16.9049H6.08715C6.17118 16.9049 6.24064 16.9743 6.24064 17.0584V18.3015H6.46757L7.06367 17.2694V16.5939L6.46757 15.6128V14.541L10.0422 15.544C10.5648 15.6882 11.0835 15.405 11.3971 15.012L11.3978 15.0107Z" fill="#3C9645"/>
<path d="M11.3978 15.0107L12.24 13.9469L11.3746 12.2532C11.1623 11.8364 11.0564 11.3924 11.0472 10.9538L9.82254 13.0087L6.46757 12.1189V10.4834L7.06367 9.50224V8.82675L6.46757 7.79466H6.23998V9.0378C6.23998 9.12116 6.16985 9.19129 6.08649 9.19129H5.17679C5.09343 9.19129 5.02397 9.12249 5.02397 9.03846V7.79532H4.79704L4.2016 8.82609V9.50158L4.78711 10.4649V11.5678L4.63296 11.5876C4.43051 11.6141 4.26379 11.6895 4.2585 11.8959L4.22674 13.1238C4.21748 13.4844 4.45896 13.8337 4.78711 13.9667V15.6306L4.2016 16.5939V17.2694L4.7977 18.3015H5.02463V17.0584C5.02463 16.9737 5.09343 16.9049 5.17746 16.9049H6.08715C6.17118 16.9049 6.24064 16.9743 6.24064 17.0584V18.3015H6.46757L7.06367 17.2694V16.5939L6.46757 15.6128V14.541L10.0422 15.544C10.5648 15.6882 11.0835 15.405 11.3971 15.012L11.3978 15.0107Z" fill="url(#paint2_linear_332_635)" fill-opacity="0.6" style="mix-blend-mode:hard-light"/>
<path d="M11.1314 8.7534C12.6881 8.7534 13.9504 7.49108 13.9504 5.93434C13.9504 5.7127 13.9246 5.49702 13.8763 5.28994C12.0265 5.5956 10.1754 5.89464 8.32487 6.19567C8.45653 7.63001 9.66262 8.7534 11.1314 8.7534Z" fill="#3C9645"/>
<path d="M11.1314 8.7534C12.6881 8.7534 13.9504 7.49108 13.9504 5.93434C13.9504 5.7127 13.9246 5.49702 13.8763 5.28994C12.0265 5.5956 10.1754 5.89464 8.32487 6.19567C8.45653 7.63001 9.66262 8.7534 11.1314 8.7534Z" fill="url(#paint3_linear_332_635)" fill-opacity="0.6" style="mix-blend-mode:hard-light"/>
<path d="M7.24763 5.84902C7.26814 5.98796 7.36804 5.98862 7.4858 5.96943C9.72796 5.60357 11.9708 5.24234 14.2123 4.87118C14.2897 4.85795 14.3419 4.78517 14.3294 4.70776L14.2209 4.05477C14.2096 3.98662 14.1507 3.93766 14.0833 3.93634C14.0409 3.93568 14.0111 3.92311 13.9992 3.89268C12.905 0.597919 7.60357 0.955182 7.82983 4.87383C7.8252 4.96447 7.78286 5.06569 7.70016 5.11134L7.36738 5.29328C7.26681 5.34819 7.17684 5.41898 7.19536 5.53212L7.24763 5.84902Z" fill="#3C9645"/>
<path d="M7.24763 5.84902C7.26814 5.98796 7.36804 5.98862 7.4858 5.96943C9.72796 5.60357 11.9708 5.24234 14.2123 4.87118C14.2897 4.85795 14.3419 4.78517 14.3294 4.70776L14.2209 4.05477C14.2096 3.98662 14.1507 3.93766 14.0833 3.93634C14.0409 3.93568 14.0111 3.92311 13.9992 3.89268C12.905 0.597919 7.60357 0.955182 7.82983 4.87383C7.8252 4.96447 7.78286 5.06569 7.70016 5.11134L7.36738 5.29328C7.26681 5.34819 7.17684 5.41898 7.19536 5.53212L7.24763 5.84902Z" fill="url(#paint4_linear_332_635)" fill-opacity="0.6" style="mix-blend-mode:hard-light"/>
<path d="M18.1706 17.4918C18.1706 16.8871 18.1799 16.2818 18.1673 15.6771C18.1601 15.3311 18.3083 15.1332 18.6285 15.0062C20.3136 14.3406 21.9907 13.6565 23.6778 12.9976C23.8531 12.9294 24.0999 12.9248 24.2739 12.9923C25.9722 13.6546 27.6613 14.34 29.3543 15.0148C29.6123 15.1174 29.7909 15.2742 29.7876 15.5692C29.7731 16.9764 29.8306 18.3896 29.7202 19.7896C29.5356 22.129 28.4856 24.0761 26.7284 25.6242C25.9702 26.2924 25.1584 26.9004 24.3711 27.5356C24.1402 27.7221 23.8882 27.7757 23.6493 27.5766C22.6113 26.7112 21.5077 25.9087 20.565 24.9494C18.9917 23.349 18.2467 21.3509 18.1753 19.1081C18.1581 18.5696 18.1726 18.0304 18.1726 17.4912C18.1713 17.4912 18.1706 17.4912 18.1693 17.4912L18.1706 17.4918ZM28.7344 18.0066C28.7344 17.2285 28.7231 16.7006 28.7397 16.1733C28.7463 15.9589 28.6676 15.8729 28.4757 15.7975C27.0559 15.2397 25.6434 14.6635 24.2229 14.1078C24.0873 14.0548 23.8948 14.0502 23.7605 14.1031C22.3189 14.6655 20.8852 15.2477 19.4449 15.8147C19.2722 15.8828 19.2206 15.9715 19.2226 16.1514C19.2325 17.1187 19.2113 18.0866 19.2325 19.0539C19.2735 20.8977 19.8379 22.5822 21.0856 23.9391C21.9126 24.8382 22.9143 25.5766 23.8498 26.3731C23.9074 26.4221 24.0966 26.389 24.1746 26.3295C24.7324 25.9007 25.2808 25.4601 25.824 25.0135C27.0453 24.0106 27.8902 22.7522 28.3745 21.2477C28.741 20.1078 28.7608 18.9354 28.7331 18.0066H28.7344Z" fill="#3C9645"/>
<path d="M18.1706 17.4918C18.1706 16.8871 18.1799 16.2818 18.1673 15.6771C18.1601 15.3311 18.3083 15.1332 18.6285 15.0062C20.3136 14.3406 21.9907 13.6565 23.6778 12.9976C23.8531 12.9294 24.0999 12.9248 24.2739 12.9923C25.9722 13.6546 27.6613 14.34 29.3543 15.0148C29.6123 15.1174 29.7909 15.2742 29.7876 15.5692C29.7731 16.9764 29.8306 18.3896 29.7202 19.7896C29.5356 22.129 28.4856 24.0761 26.7284 25.6242C25.9702 26.2924 25.1584 26.9004 24.3711 27.5356C24.1402 27.7221 23.8882 27.7757 23.6493 27.5766C22.6113 26.7112 21.5077 25.9087 20.565 24.9494C18.9917 23.349 18.2467 21.3509 18.1753 19.1081C18.1581 18.5696 18.1726 18.0304 18.1726 17.4912C18.1713 17.4912 18.1706 17.4912 18.1693 17.4912L18.1706 17.4918ZM28.7344 18.0066C28.7344 17.2285 28.7231 16.7006 28.7397 16.1733C28.7463 15.9589 28.6676 15.8729 28.4757 15.7975C27.0559 15.2397 25.6434 14.6635 24.2229 14.1078C24.0873 14.0548 23.8948 14.0502 23.7605 14.1031C22.3189 14.6655 20.8852 15.2477 19.4449 15.8147C19.2722 15.8828 19.2206 15.9715 19.2226 16.1514C19.2325 17.1187 19.2113 18.0866 19.2325 19.0539C19.2735 20.8977 19.8379 22.5822 21.0856 23.9391C21.9126 24.8382 22.9143 25.5766 23.8498 26.3731C23.9074 26.4221 24.0966 26.389 24.1746 26.3295C24.7324 25.9007 25.2808 25.4601 25.824 25.0135C27.0453 24.0106 27.8902 22.7522 28.3745 21.2477C28.741 20.1078 28.7608 18.9354 28.7331 18.0066H28.7344Z" fill="url(#paint5_linear_332_635)" fill-opacity="0.6" style="mix-blend-mode:hard-light"/>
</g>
<defs>
<linearGradient id="paint0_linear_332_635" x1="8.96839" y1="23.0499" x2="24.3633" y2="19.4095" gradientUnits="userSpaceOnUse">
<stop stop-color="#0B0B0B"/>
<stop offset="1" stop-color="white" stop-opacity="0"/>
</linearGradient>
<linearGradient id="paint1_linear_332_635" x1="13.8637" y1="23.7859" x2="34.5345" y2="15.9722" gradientUnits="userSpaceOnUse">
<stop stop-color="#0B0B0B"/>
<stop offset="1" stop-color="white" stop-opacity="0"/>
</linearGradient>
<linearGradient id="paint2_linear_332_635" x1="3.08845" y1="14.8252" x2="13.6845" y2="10.9924" gradientUnits="userSpaceOnUse">
<stop stop-color="#0B0B0B"/>
<stop offset="1" stop-color="white" stop-opacity="0"/>
</linearGradient>
<linearGradient id="paint3_linear_332_635" x1="7.54585" y1="7.60749" x2="12.8208" y2="3.55665" gradientUnits="userSpaceOnUse">
<stop stop-color="#0B0B0B"/>
<stop offset="1" stop-color="white" stop-opacity="0"/>
</linearGradient>
<linearGradient id="paint4_linear_332_635" x1="6.20442" y1="4.54789" x2="12.816" y2="-0.613394" gradientUnits="userSpaceOnUse">
<stop stop-color="#0B0B0B"/>
<stop offset="1" stop-color="white" stop-opacity="0"/>
</linearGradient>
<linearGradient id="paint5_linear_332_635" x1="16.5573" y1="22.8198" x2="31.7737" y2="17.1541" gradientUnits="userSpaceOnUse">
<stop stop-color="#0B0B0B"/>
<stop offset="1" stop-color="white" stop-opacity="0"/>
</linearGradient>
</defs>
</svg>
