<svg xmlns="http://www.w3.org/2000/svg" xmlns:xlink="http://www.w3.org/1999/xlink" width="24" height="24" viewBox="0 0 24 24">
  <defs>
    <clipPath id="clip-path">
      <rect id="Rectangle_16535" data-name="Rectangle 16535" width="24" height="24" fill="none" stroke="#707070" stroke-width="1"/>
    </clipPath>
  </defs>
  <g id="Mask_Group_2054" data-name="Mask Group 2054" clip-path="url(#clip-path)">
    <g id="customer-service" transform="translate(-27.6 447.183)">
      <path id="Path_83637" data-name="Path 83637" d="M38.921-442.63l-.4.06a7.227,7.227,0,0,0-2.939,1.158,8.157,8.157,0,0,0-1.853,1.853,8.367,8.367,0,0,0-.839,1.653c-.128.355-.132.363-.26.363a2.038,2.038,0,0,0-.894.323,2.7,2.7,0,0,0-1.05,1.573,3.351,3.351,0,0,0-.088,1.018,3.44,3.44,0,0,0,.244,1.537,2.9,2.9,0,0,0,1.226,1.517,1.777,1.777,0,0,0,1.218.064c.595-.148.8-.331.8-.711,0-.092-.12-.942-.264-1.9-.287-1.9-.291-1.961-.128-2.7a6.305,6.305,0,0,1,1.046-2.32,7.548,7.548,0,0,1,1.461-1.4,5.978,5.978,0,0,1,3.394-1.034,5.919,5.919,0,0,1,4.169,1.677A5.922,5.922,0,0,1,45.5-436.82a4.5,4.5,0,0,1-.052,2.192l-.184,1.218-.22.455a6.026,6.026,0,0,1-4.268,3.342,7.861,7.861,0,0,1-1.358.092,6.219,6.219,0,0,0-1.118.072.935.935,0,0,0-.335.383,2.158,2.158,0,0,0,.012.918.8.8,0,0,0,.471.407c.072.012.639.02,1.258.012l1.122-.012.156-.124a.719.719,0,0,0,.291-.575v-.18l.531-.172a6.726,6.726,0,0,0,2.787-1.721,8.847,8.847,0,0,0,.731-.815c.2-.276.248-.3.435-.232a3.546,3.546,0,0,0,.407.1,1.5,1.5,0,0,0,1.473-.507,3.1,3.1,0,0,0,.715-1.13,3.44,3.44,0,0,0,.244-1.537,3.1,3.1,0,0,0-.355-1.7,1.939,1.939,0,0,0-1.509-1.178l-.311-.052-.116-.339a7.566,7.566,0,0,0-1.2-2.136,8.876,8.876,0,0,0-1.4-1.31,9.029,9.029,0,0,0-1.869-.946,6.515,6.515,0,0,0-2.084-.339C39.352-442.642,38.977-442.642,38.921-442.63Z" transform="translate(0 0)" fill="#3c9645"/>
      <path id="Path_83638" data-name="Path 83638" d="M137.628-387.577a4.934,4.934,0,0,0-3.9,3.3,4.162,4.162,0,0,0-.226,1.577,5.787,5.787,0,0,0,.056.943,5.16,5.16,0,0,0,1.1,2.3l.161.168-.165.742a2.508,2.508,0,0,0-.125.883.371.371,0,0,0,.379.289,6.445,6.445,0,0,0,.81-.4l.681-.385.415.14a4.982,4.982,0,0,0,6.033-2.4,4.676,4.676,0,0,0,.528-2.062,4.808,4.808,0,0,0-1.337-3.623,4.641,4.641,0,0,0-1.365-1.007,4.39,4.39,0,0,0-1.152-.405A6.5,6.5,0,0,0,137.628-387.577Zm-1.3,4.056a.919.919,0,0,1-.415,1.741.917.917,0,0,1-.419-1.741A.877.877,0,0,1,136.331-383.521Zm2.388-.064a1.1,1.1,0,0,1,.318.189.918.918,0,0,1-.6,1.617.915.915,0,0,1-.926-.923A.928.928,0,0,1,138.72-383.585Zm2.642.056a.932.932,0,0,1-.056,1.7,1.011,1.011,0,0,1-1.063-.265A.93.93,0,0,1,141.362-383.529Z" transform="translate(-98.834 -52.843)" fill="#3c9645"/>
    </g>
  </g>
</svg>
