<svg xmlns="http://www.w3.org/2000/svg" xmlns:xlink="http://www.w3.org/1999/xlink" width="24" height="24" viewBox="0 0 24 24">
  <defs>
    <clipPath id="clip-path">
      <rect id="Rectangle_16535" data-name="Rectangle 16535" width="24" height="24" fill="none" stroke="#707070" stroke-width="1"/>
    </clipPath>
    <clipPath id="clip-path-2">
      <rect id="Rectangle_19958" data-name="Rectangle 19958" width="18" height="18" fill="#3c9645"/>
    </clipPath>
  </defs>
  <g id="Mask_Group_2054" data-name="Mask Group 2054" clip-path="url(#clip-path)">
    <g id="Group_78671" data-name="Group 78671" transform="translate(3 3)">
      <g id="Group_78671-2" data-name="Group 78671" clip-path="url(#clip-path-2)">
        <path id="Path_83644" data-name="Path 83644" d="M6.3,18.124H5.77l-.262-.088c-1.481-.493-2.963-.983-4.443-1.482A1.5,1.5,0,0,1,.036,15.439.437.437,0,0,0,0,15.363V1.274c.014-.044.029-.088.041-.132A1.511,1.511,0,0,1,.911.123C1.027.071,1.153.04,1.274,0h8.849a.615.615,0,0,0,.1.035A2.235,2.235,0,0,1,12.069,2.1c.032.659.014,1.321.016,1.981a5.571,5.571,0,0,1-.015.565.726.726,0,0,1-.621.632.749.749,0,0,1-.878-.794c-.006-.714,0-1.427,0-2.141a.749.749,0,0,0-.822-.823H6.6c-.05,0-.1,0-.15.007a.081.081,0,0,0,.052.048A1.531,1.531,0,0,1,7.554,3.157q0,5.467,0,10.934v.246c.807,0,1.585.009,2.363,0a.712.712,0,0,0,.631-.581,1.8,1.8,0,0,0,.02-.3c0-.95,0-1.9,0-2.848a.76.76,0,0,1,.754-.792.747.747,0,0,1,.755.753c.009,1.061.029,2.124-.013,3.184a2.223,2.223,0,0,1-2.254,2.109q-1.026,0-2.052,0H7.554c0,.249,0,.478,0,.707a1.473,1.473,0,0,1-.679,1.3,3.7,3.7,0,0,1-.574.255" fill="#3c9645"/>
        <path id="Path_83646" data-name="Path 83646" d="M285.586,110.465a4.062,4.062,0,0,1-.377.523c-.936.949-1.881,1.89-2.825,2.83a.758.758,0,0,1-1.129.015.75.75,0,0,1-.2-.532c0-.737,0-1.474,0-2.24h-.192q-1.389,0-2.778,0a.768.768,0,0,1-.782-.565.748.748,0,0,1,.719-.949c.938,0,1.876,0,2.813,0h.219v-.194c0-.678,0-1.357,0-2.035a.758.758,0,0,1,1.3-.558q1.5,1.5,3,3a2.018,2.018,0,0,1,.227.348Z" transform="translate(-267.462 -102.749)" fill="#3c9645"/>
      </g>
    </g>
  </g>
</svg>
