<svg xmlns="http://www.w3.org/2000/svg" xmlns:xlink="http://www.w3.org/1999/xlink" width="24" height="24" viewBox="0 0 24 24">
  <defs>
    <clipPath id="clip-path">
      <rect id="Rectangle_16535" data-name="Rectangle 16535" width="24" height="24" fill="none" stroke="#707070" stroke-width="1"/>
    </clipPath>
  </defs>
  <g id="Mask_Group_2054" data-name="Mask Group 2054" clip-path="url(#clip-path)">
    <g id="My_Profile" data-name="My Profile">
      <path id="Path_83628" data-name="Path 83628" d="M7.276,9.076A4.5,4.5,0,0,1,7.023,7,4.12,4.12,0,0,1,7.7,5.07,4.645,4.645,0,0,1,8.892,3.829a4.525,4.525,0,0,1,1.718-.755c.135-.026.27-.05.406-.074H12c.131.036.26.084.394.107a4.507,4.507,0,0,1,1.345.489,5.019,5.019,0,0,1,.892.7,4.508,4.508,0,0,1,1.046,1.51,3.6,3.6,0,0,1,.245,1.069c.044.283.029.575.044.862A1.7,1.7,0,0,0,16,7.944c0,.015,0,.031,0,.046-.063.247-.116.5-.192.741a4.2,4.2,0,0,1-.7,1.405c-.073.092-.137.191-.205.287l-.027.027a12.071,12.071,0,0,1-.989.84,3.713,3.713,0,0,1-1.11.519,4.632,4.632,0,0,1-1.784.164,5.453,5.453,0,0,1-1.3-.366,4.048,4.048,0,0,1-1.667-1.275A9.593,9.593,0,0,1,7.3,9.151l-.026-.074Z" fill="#3c9645"/>
      <path id="Path_83629" data-name="Path 83629" d="M5.825,12.671a3.4,3.4,0,0,1,1.407-.6,1.766,1.766,0,0,1,1.382.192,6.1,6.1,0,0,0,.736.472,8.759,8.759,0,0,0,1.208.488,4.721,4.721,0,0,0,.9.127,1.3,1.3,0,0,0,.286-.032l.072-.034a1.822,1.822,0,0,0,.928-.166,5.7,5.7,0,0,0,1.339-.681,6.018,6.018,0,0,1,.727-.372,1.865,1.865,0,0,1,.285-.037,1.534,1.534,0,0,1,.728.072,3.223,3.223,0,0,1,1.756,1.015,4.637,4.637,0,0,1,.764,1.261l.028.036c.14.494.294.985.413,1.484a6.388,6.388,0,0,1,.112.885c.032.339.056.68.069,1.02.007.171.08.341-.024.52-.053.091-.007.231-.034.341-.05.2-.119.394-.183.59-.02.062-.048.122-.073.183l-.027.037a2.759,2.759,0,0,1-1.413,1.265,3.883,3.883,0,0,1-1.57.266c-2.932,0-5.865.008-8.8-.009a2.953,2.953,0,0,1-1.8-.653,2.58,2.58,0,0,1-.955-1.487,5.023,5.023,0,0,1-.089-1,8.421,8.421,0,0,1,.273-2.427.579.579,0,0,0,0-.135q0-.015,0-.031l.359-.993.025-.036q.292-.492.583-.984c.019-.032.033-.066.049-.1,0-.009,0-.018,0-.026l.5-.45h.028Z" fill="#3c9645"/>
    </g>
  </g>
</svg>
