<?xml version="1.0" encoding="utf-8"?>
<!-- Generator: Adobe Illustrator 27.7.0, SVG Export Plug-In . SVG Version: 6.00 Build 0)  -->
<svg version="1.1" id="Icons" xmlns="http://www.w3.org/2000/svg" xmlns:xlink="http://www.w3.org/1999/xlink" x="0px" y="0px"
	 viewBox="0 0 28 28" style="enable-background:new 0 0 28 28;" xml:space="preserve">
<path d="M21.5,3.9H6.5C5.1,3.9,4,5,4,6.3v15.3c0,1.4,1.1,2.5,2.5,2.5h15.1c1.4,0,2.5-1.1,2.5-2.5V6.3C24,5,22.9,3.9,21.5,3.9
	L21.5,3.9z M23.3,21.7c0,1-0.8,1.8-1.8,1.8H6.5c-1,0-1.8-0.8-1.8-1.8V6.3c0-1,0.8-1.8,1.8-1.8h15.1c1,0,1.8,0.8,1.8,1.8L23.3,21.7
	L23.3,21.7z M10.2,7.9H7.8c-0.7,0-1.2,0.5-1.2,1.2v2.4c0,0.7,0.5,1.2,1.2,1.2h2.4c0.7,0,1.2-0.5,1.2-1.2V9.1
	C11.4,8.5,10.8,7.9,10.2,7.9z M10.7,11.5c0,0.3-0.2,0.5-0.5,0.5H7.8c-0.3,0-0.5-0.2-0.5-0.5V9.1c0-0.3,0.2-0.5,0.5-0.5h2.4
	c0.3,0,0.5,0.2,0.5,0.5V11.5z M10.1,9.5c0.1,0.1,0.1,0.4,0,0.5l-1.2,1.2c-0.1,0.1-0.2,0.1-0.2,0.1s-0.2,0-0.2-0.1l-0.6-0.6
	c-0.1-0.1-0.1-0.4,0-0.5c0.1-0.1,0.4-0.1,0.5,0l0.4,0.4l1-1C9.8,9.3,10,9.3,10.1,9.5L10.1,9.5z M12.8,8.3c0-0.2,0.2-0.3,0.3-0.3h3.7
	c0.2,0,0.3,0.2,0.3,0.3S17,8.6,16.8,8.6h-3.7C13,8.6,12.8,8.5,12.8,8.3L12.8,8.3z M21.4,10.3c0,0.2-0.2,0.3-0.3,0.3h-7.9
	c-0.2,0-0.3-0.2-0.3-0.3S13,10,13.2,10h7.9C21.3,10,21.4,10.1,21.4,10.3z M21.4,12.4c0,0.2-0.2,0.3-0.3,0.3h-7.9
	c-0.2,0-0.3-0.2-0.3-0.3S13,12,13.2,12h7.9C21.3,12,21.4,12.2,21.4,12.4z M10.2,15.3H7.8c-0.7,0-1.2,0.5-1.2,1.2v2.4
	c0,0.7,0.5,1.2,1.2,1.2h2.4c0.7,0,1.2-0.5,1.2-1.2v-2.4C11.4,15.8,10.8,15.3,10.2,15.3z M10.7,18.9c0,0.3-0.2,0.5-0.5,0.5H7.8
	c-0.3,0-0.5-0.2-0.5-0.5v-2.4c0-0.3,0.2-0.5,0.5-0.5h2.4c0.3,0,0.5,0.2,0.5,0.5V18.9z M12.8,15.6c0-0.2,0.2-0.3,0.3-0.3h3.7
	c0.2,0,0.3,0.2,0.3,0.3S17,16,16.8,16h-3.7C13,16,12.8,15.8,12.8,15.6L12.8,15.6z M21.4,17.7c0,0.2-0.2,0.3-0.3,0.3h-7.9
	c-0.2,0-0.3-0.2-0.3-0.3c0-0.2,0.2-0.3,0.3-0.3h7.9C21.3,17.3,21.4,17.5,21.4,17.7z M21.4,19.7c0,0.2-0.2,0.3-0.3,0.3h-7.9
	c-0.2,0-0.3-0.2-0.3-0.3c0-0.2,0.2-0.3,0.3-0.3h7.9C21.3,19.4,21.4,19.5,21.4,19.7z M10.1,16.8c0.1,0.1,0.1,0.4,0,0.5l-1.2,1.2
	c-0.1,0.1-0.2,0.1-0.2,0.1c-0.1,0-0.2,0-0.2-0.1l-0.6-0.6c-0.1-0.1-0.1-0.4,0-0.5c0.1-0.1,0.4-0.1,0.5,0l0.4,0.4l1-1
	C9.8,16.7,10,16.7,10.1,16.8L10.1,16.8z"/>
</svg>
