<?xml version="1.0" encoding="utf-8"?>
<!-- Generator: Adobe Illustrator 27.7.0, SVG Export Plug-In . SVG Version: 6.00 Build 0)  -->
<svg version="1.1" id="Icons" xmlns="http://www.w3.org/2000/svg" xmlns:xlink="http://www.w3.org/1999/xlink" x="0px" y="0px"
	 viewBox="0 0 28 28" style="enable-background:new 0 0 28 28;" xml:space="preserve">
<path d="M4.3,6.7h2.4l2,10.9l-0.8,1.3c-0.3,0.5-0.2,1.3,0.4,1.6c0.2,0.1,0.4,0.2,0.6,0.2h1c-0.7,0.8-0.7,2.1,0.1,2.8
	c0.8,0.7,2.1,0.7,2.8-0.1c0.7-0.8,0.7-1.9,0-2.7h4.4c-0.7,0.8-0.7,2.1,0.1,2.8c0.8,0.7,2.1,0.7,2.8-0.1c0.7-0.8,0.7-1.9,0-2.7h1.2
	c0.2,0,0.3-0.1,0.3-0.3c0-0.2-0.1-0.3-0.3-0.3H8.8c-0.3,0-0.5-0.2-0.5-0.5c0-0.1,0-0.2,0.1-0.3L9.2,18l11.5-0.6c0.5,0,1-0.4,1.2-0.9
	l2.1-6.8c0.2-0.7-0.2-1.4-0.8-1.6C23,8,22.8,8,22.7,8h-4.2c-1.5-2.1-3.6-2.6-5.2-2.7V5c0-0.4-0.2-0.7-0.6-0.9
	c-0.3-0.2-0.7-0.1-1,0.1L9,6.6C8.6,6.9,8.6,7.5,8.9,7.9c0,0,0,0,0.1,0.1H7.6L7.4,6.5C7.3,6.2,7,6,6.7,6H4.3C4.1,6,4,6.1,4,6.3
	S4.1,6.7,4.3,6.7z M12.7,22c0,0.7-0.6,1.3-1.3,1.3c-0.7,0-1.3-0.6-1.3-1.3s0.6-1.3,1.3-1.3C12.1,20.7,12.7,21.3,12.7,22z M20,22
	c0,0.7-0.6,1.3-1.3,1.3c-0.7,0-1.3-0.6-1.3-1.3s0.6-1.3,1.3-1.3C19.4,20.7,20,21.3,20,22z M9.4,7.1l2.8-2.4c0.1-0.1,0.2-0.1,0.3,0
	c0.1,0,0.2,0.2,0.2,0.3v0.7C12.7,5.8,12.8,6,13,6c2.9,0,6.5,1.5,6.7,8.5c0,0.1,0,0.1-0.1,0.1c0,0-0.1,0-0.1,0
	c-0.1,0-0.1-0.1-0.2-0.1c-1.2-5.4-5.2-5.9-6.3-5.9c-0.2,0-0.3,0.1-0.3,0.3v0.7c0,0.1-0.1,0.2-0.2,0.3c-0.1,0-0.2,0-0.3,0L9.4,7.5
	C9.3,7.4,9.3,7.3,9.4,7.1C9.4,7.1,9.4,7.1,9.4,7.1L9.4,7.1z M9.7,8.7l2,1.8c0.3,0.2,0.7,0.3,1,0.1c0.3-0.2,0.6-0.5,0.6-0.9V9.3
	c3.3,0.2,4.7,3.1,5.2,4.7h-8c-0.2,0-0.3,0.1-0.3,0.3s0.1,0.3,0.3,0.3h8.2l0,0c0.1,0.4,0.4,0.6,0.8,0.7c0.2,0,0.4-0.1,0.6-0.2
	c0.2-0.2,0.2-0.4,0.2-0.6l0,0c-0.1-2.6-0.6-4.4-1.3-5.8h3.7c0.3,0,0.6,0.3,0.6,0.6c0,0.1,0,0.1,0,0.2l-2.1,6.8
	c-0.1,0.2-0.3,0.4-0.6,0.4L9.3,17.3L7.7,8.7H9.7z"/>
</svg>
