<?xml version="1.0" encoding="utf-8"?>
<!-- Generator: Adobe Illustrator 27.7.0, SVG Export Plug-In . SVG Version: 6.00 Build 0)  -->
<svg version="1.1" id="Layer_1" xmlns="http://www.w3.org/2000/svg" xmlns:xlink="http://www.w3.org/1999/xlink" x="0px" y="0px"
	 viewBox="0 0 1080 1080" style="enable-background:new 0 0 1080 1080;" xml:space="preserve">
<style type="text/css">
	.st0{fill:#020305;}
	.st1{fill:#010101;}
</style>
<g>
	<path d="M395.2,841.7c0.6,36.6,9.3,70.4,33.7,98.9c9.4,11,20.3,20.2,32.6,27.7c36.5,22.2,76.4,33.8,118.8,37.6
		c14.3,1.3,28.5,2.4,42.8,3.3c8.1,0.5,13.8,3.7,13.2,12.6c-0.6,8.5-6.6,10.6-14.2,10.4c-39.7-1.4-79-5.9-117.1-17.8
		c-4.2-1.3-8-2.1-12.5-0.6c-60.3,19.7-122.4,20.6-184.9,16.7c-29-1.8-57.4-6.9-85.3-15.3C109.5,981.1,85,865,127.7,785.6
		c26.8-49.9,60.3-94.9,94.9-139.3c18.4-23.6,36.8-47.3,55.6-70.7c3.7-4.6,4-8.1,1.7-13.4c-9.8-22.3-18.2-45-20.9-69.5
		c-1.2-11-0.9-22,1.1-32.8c3.6-18.9,17.3-26.2,34.7-18c10.8,5.1,21,11.6,31.2,17.8c20.5,12.4,40.8,12.5,61.4,0.3
		c9.7-5.8,19.4-11.7,29.6-16.7c19.8-9.6,33.8-1.6,37.1,20.3c4.6,29.9-3.4,57.9-15.4,84.3c-7.4,16.3-6.4,27.9,6.1,40.4
		c9.6,9.6,17.4,21,25.8,31.8c3.3,4.3,5.2,5.7,9.3,0.4c29.3-37.5,58.9-74.9,88.7-112.1c3.7-4.7,3.6-8.4,1.5-13.5
		c-10.9-25.7-21.5-51.7-25.2-79.7c-1.8-13.6-1.7-27.3,1.3-40.7c4.3-18.9,18.6-26.4,36.2-18.2c10.5,4.9,20.6,11,30.2,17.4
		c27.6,18.5,55,19.4,83,0.9c9.4-6.2,19.3-11.9,29.4-16.8c19.7-9.6,34.8-1.5,38.7,20.2c4.4,24.3,0.5,47.8-7.1,70.8
		c-4.8,14.5-10.2,28.9-16.3,42.9c-3.3,7.6-2.8,12.9,2.5,19.7c40.8,51.8,83.3,102.3,121.1,156.4c25.3,36,49.3,72.8,64.4,114.5
		c2.9,8.1,5.3,16.5,7.2,24.9c1.5,6.7-1.5,12-8.4,13.8c-6.9,1.8-11.9-1.5-13.7-8.2c-17.7-66.1-58.5-119-98.5-172.2
		c-29.6-39.4-60.9-77.5-91.2-116.4c-3.7-4.8-6.6-5.6-12.3-3.4c-39,15.1-78.1,19.3-117.1,0.1c-4-2-6-0.4-8.3,2.5
		C531.7,592.6,474.2,659.8,429.1,736c-16.5,27.8-31.2,56.6-33.8,89.7C394.8,831,395.2,836.4,395.2,841.7z M462.1,997.1
		c-25.2-14-47.4-30.7-62.1-54.8c-35.8-58.4-40.3-119.1-11.1-181.8c17.9-38.5,41.4-73.6,66.6-107.6c4.2-5.7,4.9-9.4-0.2-15.2
		c-11.8-13.6-23.3-27.5-33.6-42.2c-5.4-7.6-9.9-8-18-4.9c-32.2,12.4-64.8,15.3-96.9,0c-6.5-3.1-9.6-2.2-13.8,3.3
		c-23.7,30.9-48.2,61.2-71.8,92.2c-29.5,38.7-58.1,77.9-78.3,122.6c-16.7,36.9-14.9,74-0.3,110.6c16.2,40.7,49.6,62.6,89.9,74.2
		c68.1,19.7,137.4,18.9,207,9.2C446.7,1001.8,454.4,1001.4,462.1,997.1z M741.7,398.4c0-3.7,0.2-7.3,0-11
		c-0.8-10.7-2.4-11.6-11.9-6.2c-12.5,7-24.7,14.6-37.4,21.1c-22.2,11.4-45.1,12.9-68.4,3.1c-16.7-7-31.4-17.3-47-26.3
		c-5.9-3.4-8.5-1.8-8.9,4.5c-0.9,12-1.3,23.9,1,35.8c4.8,24.7,14.6,47.6,24.1,70.7c1.7,4.1,4.8,6.1,8.4,8.1
		c26.8,14.6,54.6,13.7,83.4,7.1c20.4-4.7,33.8-14.2,40.1-35.6C731.8,446.2,742.2,423.6,741.7,398.4z M281.5,480.2
		c0.5,29.1,11.8,55.4,23.5,81.5c1.6,3.6,5.3,4.9,8.5,6.6c27.2,14.1,54.6,10.6,82.1,1c8.1-2.8,13.6-7,16.2-15.6
		c3.6-11.7,8.7-23,12.7-34.6c5.4-15.5,8.3-31.4,7.1-48c-0.5-7.3-3-8.7-9.2-4.8c-7,4.4-14.3,8.4-21.4,12.7
		c-29.6,17.7-59,17.9-88.5-0.3c-4.5-2.8-9-5.7-13.8-8.1c-4.9-2.5-9.7-9.1-14.6-6.5C279.3,466.8,282.7,474.5,281.5,480.2z"/>
	<path d="M971.7,932.7c0,15.3-0.7,30.7,0.2,46c1.1,18.1-7.4,29.6-22.6,37.6c-18.6,9.8-38.9,13.7-59.5,15.3
		c-25.6,1.9-51.3,1.4-76.3-6c-5-1.5-9.2,0.1-13.6,1.1c-40.1,8.5-79.9,8.4-119.3-4.4c-8-2.6-15.3-6.3-22.1-11.3
		c-9.2-6.7-14.2-15.7-14.2-27.2c-0.1-52.9-0.4-105.8-0.2-158.6c0.1-13.6,8.6-22.6,19.8-29.2c14.3-8.4,30-12.5,46.2-15
		c35-5.3,69.7-4.1,103.6,7c10.8,3.5,21,8.5,28.9,17.1c5.4,5.9,9.1,12.9,8.3,20.7c-0.8,8.1,2.9,8.5,9.1,8.3
		c24.4-0.9,48.6,0.3,72.1,7.8c8.6,2.7,16.9,6.1,24.3,11.4c10.2,7.2,15.8,16.5,15.3,29.5C971.3,899.3,971.7,916,971.7,932.7z
		 M748.5,801.9c-6,0-12-0.4-17.9,0.1c-16.6,1.2-33,3.9-48.4,10.6c-5.4,2.4-13.1,4.6-13.3,10.7c-0.3,6.4,7.6,8.3,12.8,10.9
		c3.2,1.6,6.8,2.7,10.2,3.9c11.6,4.2,23.8,5.9,36,6.9c29.4,2.4,58.4,0.8,86-10.9c5.3-2.3,13-4.5,12.6-11.1
		c-0.3-5.6-7.5-7.9-12.7-10.1C793,803.9,770.9,801.5,748.5,801.9z M668.6,963.8c-1.9,26.7-4.6,28.3,23,37.3
		c34.3,11.2,69.5,10.9,104.4,2.4c26.9-6.5,31.9-12.9,31.6-33.7c-0.1-5.7-0.6-7.8-7-5c-21.3,9.4-44,12.4-67.1,13.1
		C724.4,978.8,695.9,975.1,668.6,963.8z M826.5,909c-8.5,2.8-16.7,6.4-25.4,8.4c-42.7,9.8-85,9.5-126.6-5.5c-2-0.7-5.1-4.9-6.7,1
		c-4.3,16.1,0.2,26.2,16.2,31.7c40.2,13.9,80.9,14,121.4,1.3C826.2,939.3,830,931.7,826.5,909z M668.7,855.2
		c-1.8,30.1-4.4,28.3,17.2,35.7c40.8,14,82.4,13.7,123.3-0.8c16-5.7,18.5-10.9,18.4-27.7c-0.1-5.8-0.7-7.6-7.1-4.9
		c-21.8,9-44.7,12-68.1,12.5C723.6,870.4,695.6,866.6,668.7,855.2z M877.5,857.2c-26.1-0.3-26.1-0.3-26.1,25.5c0,3.7,0.1,7.3,0,11
		c-0.1,3.2,1.1,5.1,4.5,5.2c28,0.9,55.8,0.4,81.8-11.9c4.1-1.9,9.6-4,9.6-9.1c0-5.2-5.7-6.9-9.7-8.9
		C918.6,859.7,898.3,857.5,877.5,857.2z M842,1007.2c11.8,1.7,22.3,2.5,32.8,1.9c21.6-1.2,43.1-3.1,62.9-13.1
		c4.9-2.5,10.6-4.8,10.7-11.8c0.1-6.6,0-13.2,0-20.5c-9.2,3-17.3,5.9-25.5,8.1c-20.7,5.4-41.9,6.7-63.3,6.2c-3-0.1-8.1-2.4-8,4
		C851.7,991.3,848.3,999.4,842,1007.2z M872.1,954.7c16.3-0.3,29.8-1.6,43.1-4.9c10-2.5,19.9-5.4,28.4-11.7c4-3,7.8-22.3,4.3-26
		c-4.8-5-9.1,2.5-14,2.4c-1.6,0-3.1,1-4.7,1.4c-22.9,6.7-46.3,8.6-70,7.8c-6.1-0.2-8.2,1.5-7.9,7.7
		C852.7,958.5,845,954.4,872.1,954.7z"/>
	<path d="M416.3,147.5c0,5,0,10,0,15c0.1,7.8-3.1,13.3-11.3,13.4c-7.6,0.1-10.7-4.9-11.7-12.2c-2.8-21.5-12.7-32.8-31-36.4
		c-22.5-4.4-43.2,11.4-44.7,34.2c-1.5,22.1-1.5,22.2,20.9,22.4c6,0,11.6,0.6,14.5,6.5c3.1,6.3-0.1,11.3-4.2,16.2
		c-22.1,26.7-44,53.5-66,80.2c-8.1,9.9-14.6,9.9-22.8,0c-22.3-27-44.4-54-66.6-81.1c-3.8-4.6-6.7-9.3-3.5-15.4
		c2.9-5.6,7.9-6.4,13.5-6.5c22.4-0.4,23-0.5,22.2-23c-0.9-26.4,3.3-51,19.2-72.8c25.2-34.4,67.4-48.6,107.1-36
		c38.6,12.2,63.6,47.4,64.3,90.4C416.3,144.2,416.3,145.8,416.3,147.5z M317.4,208.2c-3.5-0.5-4.8-0.7-6.1-0.8
		c-14.7-0.8-17.3-3.5-17.4-18c0-8.3-0.1-16.6,0-25c0.8-43.8,41.9-72,83.2-57.2c2.4,0.8,4.7,3.5,8.1,1.7c-6.3-12.6-15.5-22-27.3-28.8
		c-47.5-27.4-107.5,8.4-108.9,65.1c-0.4,15.3,0,30.6-0.1,45.9c-0.1,12.3-3.3,15.5-15.1,16.3c-2.2,0.1-4.6-0.6-7.5,1.8
		c14.1,17.1,28.2,34.3,42.1,51.5c2.5,3.1,4.1,2.2,6.1-0.3C288.5,243.4,302.4,226.5,317.4,208.2z"/>
	<path d="M329.8,287.4c0-5.3-0.2-10.7,0-16c0.3-6.6,4-10.7,10.5-11.2c6.5-0.6,10.7,3,12.1,9.4c0.5,2.3,0.7,4.6,1,6.9
		c2.7,19.6,18,33.2,37.5,33.2c19.4,0,35-13.7,37.5-33.2c3.2-24.2,3.2-24.3-20.5-24.4c-6.3,0-12.2-0.5-15.1-7.1
		c-2.8-6.2,0.6-10.8,4.3-15.3c21.8-26.4,43.5-53,65.4-79.4c9.5-11.4,15.1-11.4,24.7,0.2c21.8,26.4,43.5,53,65.3,79.5
		c3.7,4.5,7.1,9,4,15.3c-2.9,6.1-8.2,6.8-14.2,6.9c-22,0.2-22.7,0.3-21.8,22.5c1.3,30.1-4.7,57.5-25.1,80.7
		c-26.9,30.6-67.5,41-105.2,27.1c-36.5-13.5-59.9-47.5-60.4-88C329.7,292.1,329.7,289.8,329.8,287.4
		C329.8,287.4,329.8,287.4,329.8,287.4z M520.2,227.5c-15.3-18.6-30.2-36.7-45.5-55.5c-15.4,18.7-30.2,36.8-45.9,55.9
		c3.4,0.5,4.9,0.8,6.5,0.9c14.3,0.9,16.7,3.2,16.7,17.4c0,8.7,0.1,17.3-0.1,26c-0.9,43.2-41.9,71.3-82.7,56.8
		c-2.5-0.9-4.8-3.7-8.3-1.6c1.4,2.5,2.6,4.8,4,7c1.7,2.5,3.4,4.9,5.5,7.1c19.7,21,43.8,28.9,71.6,21c29.9-8.5,47.4-29.6,53.7-59.7
		c3.3-15.8,1.3-31.9,1.4-47.8C497.5,231.8,497.3,231.8,520.2,227.5z"/>
</g>
</svg>
