<?xml version="1.0" encoding="utf-8"?>
<!-- Generator: Adobe Illustrator 27.7.0, SVG Export Plug-In . SVG Version: 6.00 Build 0)  -->
<svg version="1.1" id="Layer_1" xmlns="http://www.w3.org/2000/svg" xmlns:xlink="http://www.w3.org/1999/xlink" x="0px" y="0px"
	 viewBox="0 0 1080 1080" style="enable-background:new 0 0 1080 1080;" xml:space="preserve">
<style type="text/css">
	.st0{fill:#020305;}
	.st1{fill:#010101;}
</style>
<path d="M261.8,1035.9c-12.6-5.3-24.7-10.3-33.5-22.4c-22.6-31,1.2-74.4,32-76.1c6.9-0.4,13.7-1.8,20.8-2.8
	c0-24.1-0.4-48.2,0.2-72.4c0.3-12.2,1.6-24.6,3.9-36.6c5.6-29.6,12.7-58.8,25.1-86.4c14.9-33.3,32.4-64.9,56.3-92.7
	c20.8-24.1,43.5-45.9,68.9-65.3c26.8-20.5,24.7-59.7-2-79.8c-46.3-34.8-83.9-77.4-110.4-129.5c-16.4-32.2-29.1-65.7-35.4-101
	c-4.2-23.4-4.5-47.5-5.7-71.3c-0.8-16.6-0.2-33.3-0.2-51.3c-21.7,3-39.7-3-52.7-20.1c-7.2-9.5-10.9-20.6-9.7-32.8
	c2.4-22.8,17.3-42.2,44.1-45.5c1.9,0.1,3.8,0.3,5.7,0.3c177.3,0,354.5,0,531.8,0c4.8,0,9.6-0.2,14.4-0.3
	c41.5,7.2,53.9,51.8,32.4,79.5c-8.9,11.4-21.1,17.4-35.3,19.1c-4.7,0.6-9.5,0.1-15.3,0.1c0,13.8-0.1,26.8,0,39.9
	c0.5,60.9-10.6,119.4-37.2,174.3c-14.2,29.3-32.4,56.1-53.6,81.1c-19.7,23.3-42.7,42.6-66.8,60.9c-18.4,14-21.8,47.3-6.9,65.6
	c6.7,8.2,15,15.2,23.5,21.7c32.4,24.5,58.3,54.7,80.4,88.4c27.2,41.5,44.9,86.6,53.8,135.5c6.6,36.3,7,72.8,6.8,109.5
	c0,3.5,0,7,0,11.9c19.4-1.5,37.4,0.4,50.3,16.3c9.3,11.6,11.9,25.1,10.1,39.4c-2.8,21.3-21.7,39.4-44.1,41c-1.3-0.1-2.6-0.3-3.8-0.3
	c-178.8,0-357.5,0-536.3,0.1c-2.6,0-5.2,1.2-7.8,1.8C264.3,1035.9,263.1,1035.9,261.8,1035.9z M769.1,935.4
	c-2.7-36.6-4.1-71.9-8.1-107c-5.3-46.5-23.1-88.9-48.1-128.2c-20-31.6-44.5-59.2-73.8-82.7c-11.1-8.9-22.6-18-30.9-29.2
	c-25.6-34.4-18.7-82,14.8-108.8c24.2-19.3,47.3-39.2,66.9-63.4c33.3-41,56.1-87.1,67.5-138.4c4.8-21.7,7.4-44.1,9-66.4
	c1.5-20.7,0.3-41.5,0.3-62.2c-152,0-302.9,0-454.4,0c0,21.7-1,42.9,0.3,64c1.4,22.2,3.4,44.7,8.1,66.4c9.7,44,28.9,84.3,55.2,120.9
	c19,26.4,41,50.2,67.2,69.8c27.2,20.3,44.8,44.8,40.8,81.5c-2.6,23.8-14.2,41.5-31.7,55c-32.3,24.8-60.6,53-82.9,87.1
	c-37.2,56.9-58.3,118.8-57.1,187.5c0.3,17.9,0,35.8,0,54.1C464.1,935.4,614.9,935.4,769.1,935.4z M538.5,117.8
	c88.1,0,176.1,0,264.2,0c2.9,0,5.8,0.2,8.7-0.1c7.2-0.7,15.2-8.2,15.6-14.4c1-13.4-2.4-19.6-12.8-22c-4.6-1.1-9.5-1.4-14.2-1.4
	c-173.9-0.1-347.8-0.1-521.7-0.1c-2.6,0-5.1-0.1-7.7,0c-12.4,0.7-20.7,8.5-20.4,19.2c0.3,12.1,7.7,18.7,21.2,18.7
	C360.5,117.8,449.5,117.8,538.5,117.8z M537.6,1004.4c88,0,176,0,264.1,0c3.2,0,6.5,0.4,9.6-0.3c7.1-1.5,14-4.4,15.3-12.3
	c1.3-7.7,2.5-16.7-6.5-21.2c-4.8-2.4-10.7-4-16.1-4c-97.7-0.2-195.3-0.2-293-0.2c-80,0-160,0-240,0c-13.4,0-20.9,7.1-20.9,19.1
	c0,10.9,9,18.8,21.4,18.8C360.3,1004.4,448.9,1004.4,537.6,1004.4z"/>
</svg>
