<svg xmlns="http://www.w3.org/2000/svg" xmlns:xlink="http://www.w3.org/1999/xlink" width="56" height="56" viewBox="0 0 56 56">
  <defs>
    <clipPath id="clip-path">
      <rect id="Rectangle_16541" data-name="Rectangle 16541" width="56" height="56" transform="translate(0)" fill="none" stroke="#707070" stroke-width="1"/>
    </clipPath>
  </defs>
  <g id="Group_71196" data-name="Group 71196" transform="translate(-167 -407)">
    <g id="Mask_Group_2058" data-name="Mask Group 2058" transform="translate(167 407)" clip-path="url(#clip-path)">
      <g id="paytm" transform="translate(1.856 19.572)">
        <path id="Path_79170" data-name="Path 79170" d="M199.651,233.2l.433-.346a3.19,3.19,0,0,1,4.715.378c.13.151.195.162.324.032.087-.1.184-.173.27-.27a3.273,3.273,0,0,1,5.6,2.325c.022,3.1.011,6.2.011,9.3a1.659,1.659,0,0,1-1.773,1.8c-.433,0-.865-.032-1.3.011s-.573-.1-.573-.562c.022-3.028.011-6.056.011-9.084V236.4c-.011-.7-.292-.995-.962-1.027a.987.987,0,0,0-1.092.952c-.011.141,0,.292,0,.433v7.84a1.64,1.64,0,0,1-1.806,1.806c-.584-.011-1.373.26-1.709-.119-.292-.324-.1-1.092-.1-1.665v-8.057c0-.952-.616-1.438-1.417-1.114a1.074,1.074,0,0,0-.66,1.125c.011,2.509,0,5.007,0,7.516v.595a1.652,1.652,0,0,1-1.741,1.719c-.433.011-.865-.032-1.3.011-.465.043-.606-.087-.595-.584.022-4.25.011-8.5.011-12.761,0-.184.011-.357,0-.541-.022-.238.076-.314.314-.314.995.011,1.979.011,2.974,0,.249,0,.368.065.346.335A4.484,4.484,0,0,0,199.651,233.2Z" transform="translate(-158.72 -229.643)" fill="#02b9ef"/>
        <path id="Path_79171" data-name="Path 79171" d="M-130.681,240.821v4.434a2.631,2.631,0,0,1-2.941,2.931c-.844,0-1.7.011-2.541,0a2.933,2.933,0,0,1-3.05-2.866,34.753,34.753,0,0,1-.011-3.677,3.113,3.113,0,0,1,3.2-3.006c.465-.011.941,0,1.406,0s.627-.27.616-.7-.195-.627-.627-.606q-.73.016-1.46,0a1.669,1.669,0,0,1-1.838-1.838c0-.476-.216-1.114.1-1.395.27-.238.887-.087,1.352-.087,1.211-.011,2.412,0,3.623,0a2.072,2.072,0,0,1,2.174,2.174C-130.67,237.718-130.681,239.275-130.681,240.821Zm-3.309,2.455v-.541c0-1.1,0-1.1-1.1-1.06a.8.8,0,0,0-.865.876c-.011.454-.011.9,0,1.352.011.779.357.984,1.482,1.017.833.022.411-.562.487-.887A5.891,5.891,0,0,0-133.99,243.276Zm12.934-3.634c0,1.655.022,3.32-.011,4.974a3.248,3.248,0,0,1-1.557,3.115,3.475,3.475,0,0,1-1.6.433c-1.244.022-2.487,0-3.731.022-.3,0-.368-.108-.357-.379.022-.454-.011-.9.011-1.352a1.577,1.577,0,0,1,1.546-1.557c.562-.022,1.114-.011,1.676,0,.454,0,.7-.184.7-.67s-.238-.671-.692-.681a8.8,8.8,0,0,1-2.26-.13,3.013,3.013,0,0,1-2.26-2.779c-.065-2.109-.022-4.218-.032-6.326,0-.238.076-.314.314-.3.887.011,1.763.022,2.649,0,.389-.011.335.205.335.443v4.758c0,.692.324,1.06.93,1.081.714.022,1.027-.27,1.027-.995,0-1.6.011-3.212-.011-4.812,0-.379.1-.487.476-.476.789.032,1.59.043,2.379,0,.433-.022.5.141.487.519C-121.067,236.225-121.056,237.934-121.056,239.643ZM-148.61,242.1v-5.3a2.572,2.572,0,0,1,2.8-2.79,18.732,18.732,0,0,1,3.4.087,2.822,2.822,0,0,1,2.357,2.877c.011,1.568,0,3.136,0,4.7a2.962,2.962,0,0,1-3.125,3.223c-.595.022-1.19.011-1.784,0-.27-.011-.389.076-.379.368.022.433.011.865,0,1.3a1.579,1.579,0,0,1-1.6,1.611c-.541.011-1.222.227-1.568-.087-.324-.292-.086-.984-.1-1.5C-148.621,245.093-148.61,243.59-148.61,242.1Zm3.266-2.65v1.027c0,1.222,0,1.222,1.222,1.114a.75.75,0,0,0,.789-.833c.011-.606-.022-1.222.011-1.828.065-1.752-.26-1.579-1.687-1.59-.26,0-.346.076-.346.335C-145.334,238.258-145.345,238.853-145.345,239.448Z" transform="translate(148.685 -231.4)" fill="#06306f"/>
        <path id="Path_79172" data-name="Path 79172" d="M118.476,221c0-1.438-.011-2.887.011-4.326,0-.335-.076-.476-.443-.465-.487.022-1.135.162-1.406-.076-.335-.314-.076-.984-.119-1.5v-.108c0-.508-.162-1.1.054-1.482s.876-.141,1.341-.26a3.917,3.917,0,0,0,2.174-1.5,2.475,2.475,0,0,1,1.5-.973c.335-.065.541-.022.519.411-.032.606,0,1.222-.011,1.838-.011.26.087.346.346.335.433-.011.865.011,1.3-.011.26-.011.346.087.335.346-.011.887-.011,1.763,0,2.649,0,.249-.065.378-.335.346a.814.814,0,0,0-.162,0c-.476.043-1.136-.216-1.384.108-.238.3-.087.93-.087,1.417,0,2.941-.011,5.872.011,8.814,0,.411-.108.541-.519.508-.389-.032-.789,0-1.19-.011a1.9,1.9,0,0,1-1.936-2Z" transform="translate(-87.787 -210.276)" fill="#02b9ef"/>
      </g>
    </g>
  </g>
</svg>
