<svg xmlns="http://www.w3.org/2000/svg" xmlns:xlink="http://www.w3.org/1999/xlink" width="56" height="56" viewBox="0 0 56 56">
  <defs>
    <clipPath id="clip-path">
      <rect id="Rectangle_16539" data-name="Rectangle 16539" width="56" height="56" fill="none" stroke="#707070" stroke-width="1"/>
    </clipPath>
    <clipPath id="clip-path-2">
      <rect id="Rectangle_16538" data-name="Rectangle 16538" width="174.951" height="47.533" fill="none"/>
    </clipPath>
  </defs>
  <g id="Group_71197" data-name="Group 71197" transform="translate(-98 -407)">
    <g id="Mask_Group_2057" data-name="Mask Group 2057" transform="translate(98 407)" clip-path="url(#clip-path)">
      <g id="Group_71192" data-name="Group 71192" transform="translate(4.443 4.367)">
        <g id="Group_71189" data-name="Group 71189" transform="translate(0 0)" clip-path="url(#clip-path-2)">
          <path id="Path_79152" data-name="Path 79152" d="M22.916,47.533c-.714-.069-1.431-.117-2.142-.212a23.79,23.79,0,0,1-20-17.555,22.888,22.888,0,0,1-.7-7.835A23.187,23.187,0,0,1,4.774,9.5,23.146,23.146,0,0,1,20.246.288a23.067,23.067,0,0,1,18.69,5.179A22.813,22.813,0,0,1,47.3,20.282,23.056,23.056,0,0,1,41.89,39.14,23.329,23.329,0,0,1,27.064,47.3c-.746.113-1.5.158-2.254.235ZM18.538,16.04q-2.879,0-5.759,0c-.513,0-.695.154-.733.659a6.4,6.4,0,0,0,.028,1.472,1.693,1.693,0,0,0,1.69,1.484c.442.01.884,0,1.326,0,.55,0,.553,0,.554.543q0,3.084,0,6.168a9.322,9.322,0,0,0,.318,2.43,5.849,5.849,0,0,0,4.117,4.449,9.22,9.22,0,0,0,5.589-.189c.434-.143.441-.143.442.317,0,1.274-.009,2.548,0,3.822a2.037,2.037,0,0,0,2.071,2.065c.606.008,1.213.01,1.818,0a.775.775,0,0,0,.79-.792c.007-.151,0-.3,0-.454q0-8.912,0-17.824c0-.676,0-.677.659-.677.77,0,1.541,0,2.311,0,.57,0,.736-.175.742-.754,0-.378,0-.757,0-1.135A1.659,1.659,0,0,0,32.766,15.9q-1.364-.011-2.728,0a.741.741,0,0,1-.626-.278c-.341-.406-.695-.8-1.044-1.2Q25.379,11,22.392,7.582a2.448,2.448,0,0,0-1.95-.92,11.584,11.584,0,0,0-3.451.935.5.5,0,0,0-.139.828,3.6,3.6,0,0,0,.268.267q3.667,3.478,7.333,6.956c.088.084.251.163.211.29-.052.165-.238.1-.367.1q-2.88.006-5.759,0" transform="translate(0 0)" fill="#5f259f"/>
          <path id="Path_79160" data-name="Path 79160" d="M115.538,111.462c0,1.4-.009,2.8.006,4.2a.542.542,0,0,1-.425.607,6.744,6.744,0,0,1-2.8.339,2.709,2.709,0,0,1-2.648-2.738c-.125-1.5-.034-3-.058-4.5-.012-.731.006-1.463-.006-2.194,0-.3.1-.426.416-.424,1.692.011,3.384.014,5.075,0,.367,0,.445.149.442.474-.011,1.412,0,2.825,0,4.237" transform="translate(-89.426 -87.097)" fill="#5f259f"/>
        </g>
      </g>
    </g>
  </g>
</svg>
